<svg width="632" height="1062" viewBox="0 0 632 1062" fill="none" xmlns="http://www.w3.org/2000/svg">
<path fill-rule="evenodd" clip-rule="evenodd" d="M30.8599 21.1615C27.3969 17.0335 26.3349 21.4405 28.0669 23.5045C29.4629 22.3335 29.4629 22.3335 30.8599 21.1615Z" fill="#E5E5E5" fill-opacity="0.9"/>
<path fill-rule="evenodd" clip-rule="evenodd" d="M119.051 154.657C119.051 154.657 117.319 152.593 119.051 154.657C117.654 155.829 119.051 154.657 119.051 154.657Z" fill="#231F20"/>
<path fill-rule="evenodd" clip-rule="evenodd" d="M106.54 151.087C107.936 149.915 106.54 151.087 104.808 149.023C103.411 150.194 105.143 152.258 106.54 151.087Z" fill="#231F20"/>
<path fill-rule="evenodd" clip-rule="evenodd" d="M631.967 666.821C630.236 664.757 628.839 665.929 628.839 665.929C627.107 663.864 632.302 670.057 631.967 666.821Z" fill="#231F20"/>
<path fill-rule="evenodd" clip-rule="evenodd" d="M163.172 258.307C158.312 255.35 160.714 263.886 163.172 258.307V258.307Z" fill="#231F20"/>
<path fill-rule="evenodd" clip-rule="evenodd" d="M35.934 143.501C39.062 144.394 37.33 142.33 35.934 143.501V143.501Z" fill="#E5E5E5" fill-opacity="0.9"/>
<path fill-rule="evenodd" clip-rule="evenodd" d="M293.816 391.356C293.481 388.12 289.626 394.87 293.816 391.356V391.356Z" fill="#231F20"/>
<path fill-rule="evenodd" clip-rule="evenodd" d="M388.1 481.057C384.637 476.929 381.844 479.272 380.447 480.444C383.91 484.572 387.038 485.465 388.1 481.057Z" fill="#231F20"/>
<path fill-rule="evenodd" clip-rule="evenodd" d="M205.732 317.552C204 315.488 200.872 314.595 198.079 316.938C201.542 321.066 204.67 321.959 205.732 317.552Z" fill="#231F20"/>
<path fill-rule="evenodd" clip-rule="evenodd" d="M13.6451 148.133C15.0411 146.961 11.9131 146.069 10.1821 144.004C8.78513 145.176 8.78512 145.176 7.38812 146.348C12.2481 149.304 11.9131 146.068 13.6451 148.133Z" fill="#E5E5E5" fill-opacity="0.9"/>
<path fill-rule="evenodd" clip-rule="evenodd" d="M626.823 734.433C625.091 732.369 616.769 725.286 612.579 728.8C616.377 736.164 621.963 731.477 626.823 734.433Z" fill="#231F20"/>
<path fill-rule="evenodd" clip-rule="evenodd" d="M423.343 542.923L421.612 540.859L420.215 542.031L421.946 544.095C421.946 544.095 421.946 544.095 423.343 542.923Z" fill="#231F20"/>
<path fill-rule="evenodd" clip-rule="evenodd" d="M125.912 264.947C127.309 263.775 125.912 264.947 124.181 262.883C124.516 266.119 125.912 264.947 125.912 264.947Z" fill="#231F20"/>
<path fill-rule="evenodd" clip-rule="evenodd" d="M25.0389 170.223C26.4349 169.052 24.7039 166.988 25.0389 170.223C24.7039 166.988 25.0389 170.223 25.0389 170.223Z" fill="#E5E5E5" fill-opacity="0.9"/>
<path fill-rule="evenodd" clip-rule="evenodd" d="M514.833 634.969C513.437 636.141 513.772 639.376 515.503 641.44C515.503 641.44 516.9 640.269 518.296 639.097C518.296 639.097 516.565 637.033 514.833 634.969Z" fill="#231F20"/>
<path fill-rule="evenodd" clip-rule="evenodd" d="M374.077 506.887C375.473 505.716 373.742 503.652 374.077 506.887C373.742 503.652 374.077 506.887 374.077 506.887Z" fill="#231F20"/>
<path fill-rule="evenodd" clip-rule="evenodd" d="M86.7021 238.058C84.9711 235.994 83.5741 237.166 82.1771 238.337C82.1771 238.337 83.5741 237.166 85.3051 239.23C85.3051 239.23 85.3051 239.23 86.7021 238.058Z" fill="#E5E5E5" fill-opacity="0.9"/>
<path fill-rule="evenodd" clip-rule="evenodd" d="M196.568 346.338C198.3 348.402 196.568 346.338 196.568 346.338C196.568 346.338 195.172 347.51 196.568 346.338Z" fill="#231F20"/>
<path fill-rule="evenodd" clip-rule="evenodd" d="M292.919 441.339C294.315 440.168 291.188 439.276 292.919 441.339C289.791 440.447 292.919 441.339 292.919 441.339Z" fill="#231F20"/>
<path fill-rule="evenodd" clip-rule="evenodd" d="M363.574 522.731C358.715 519.774 355.252 515.646 350.727 515.925C349.331 517.097 351.062 519.161 349.666 520.332C356.257 525.353 360.781 525.074 363.574 522.731Z" fill="#231F20"/>
<path fill-rule="evenodd" clip-rule="evenodd" d="M69.943 252.116C73.071 253.009 71.34 250.944 69.943 252.116V252.116Z" fill="#E5E5E5" fill-opacity="0.9"/>
<path fill-rule="evenodd" clip-rule="evenodd" d="M228.961 424.661C225.833 423.768 224.437 424.94 224.437 424.94L226.168 427.004C229.296 427.896 229.296 427.896 228.961 424.661Z" fill="#231F20"/>
<path fill-rule="evenodd" clip-rule="evenodd" d="M87.813 307.457C84.685 306.564 82.954 304.5 81.892 308.908C83.624 310.972 86.417 308.628 87.813 307.457Z" fill="#E5E5E5" fill-opacity="0.9"/>
<path fill-rule="evenodd" clip-rule="evenodd" d="M308.61 519.607C305.147 515.479 302.353 517.822 297.829 518.101C299.56 520.166 302.353 517.822 304.085 519.887C307.213 520.779 307.213 520.779 308.61 519.607Z" fill="#231F20"/>
<path fill-rule="evenodd" clip-rule="evenodd" d="M133.893 356.716C130.43 352.588 129.033 353.759 124.509 354.038C123.112 355.21 123.447 358.446 126.91 362.574C128.307 361.402 128.307 361.402 128.307 361.402C129.703 360.231 127.972 358.166 127.972 358.166C132.496 357.887 134.228 359.951 133.893 356.716Z" fill="#231F20"/>
<path fill-rule="evenodd" clip-rule="evenodd" d="M100.604 328.376C102.001 327.205 98.872 326.312 100.604 328.376C99.207 329.548 100.604 328.376 100.604 328.376Z" fill="#E5E5E5" fill-opacity="0.9"/>
<path fill-rule="evenodd" clip-rule="evenodd" d="M74.1821 322.409C68.6521 312.981 57.5371 308.239 53.3471 311.754C55.0781 313.818 53.6821 314.99 53.6821 314.99C59.2111 324.417 68.2601 323.859 74.1821 322.409Z" fill="#E5E5E5" fill-opacity="0.9"/>
<path fill-rule="evenodd" clip-rule="evenodd" d="M375.018 618.628C374.683 615.392 366.695 611.543 363.902 613.886C367.365 618.014 370.158 615.671 375.018 618.628Z" fill="#231F20"/>
<path fill-rule="evenodd" clip-rule="evenodd" d="M532.973 795.578C534.37 794.406 529.511 791.45 529.845 794.685C529.845 794.685 531.242 793.514 532.973 795.578Z" fill="#231F20"/>
<path fill-rule="evenodd" clip-rule="evenodd" d="M102.107 386.896C100.376 384.832 98.9789 386.004 97.5829 387.175C99.3139 389.239 100.711 388.068 102.107 386.896Z" fill="#E5E5E5" fill-opacity="0.9"/>
<path fill-rule="evenodd" clip-rule="evenodd" d="M461.199 732.709C459.468 730.645 458.071 731.817 458.071 731.817C454.943 730.924 461.534 735.945 461.199 732.709Z" fill="#231F20"/>
<path fill-rule="evenodd" clip-rule="evenodd" d="M112.438 413.396C114.504 418.695 118.694 415.181 112.438 413.396V413.396Z" fill="#E5E5E5" fill-opacity="0.9"/>
<path fill-rule="evenodd" clip-rule="evenodd" d="M96.4639 405.696C93.3359 404.803 89.8729 400.676 88.8109 405.083C92.2739 409.211 93.6709 408.039 96.4639 405.696Z" fill="#E5E5E5" fill-opacity="0.9"/>
<path fill-rule="evenodd" clip-rule="evenodd" d="M120.369 431.358C115.175 425.166 112.382 427.509 107.522 424.552C104.729 426.896 101.936 429.239 97.0759 426.282C94.2829 428.625 94.2829 428.625 94.6179 431.861C98.0809 435.989 97.746 432.753 99.478 434.817C106.404 443.074 109.197 440.731 115.453 442.516C118.246 440.172 117.911 436.937 121.039 437.829C122.436 436.658 116.18 434.873 120.369 431.358Z" fill="#E5E5E5" fill-opacity="0.9"/>
<path fill-rule="evenodd" clip-rule="evenodd" d="M243.753 552.914C240.29 548.786 237.162 547.893 234.369 550.236C237.832 554.364 244.088 556.15 243.753 552.914Z" fill="#231F20"/>
<path fill-rule="evenodd" clip-rule="evenodd" d="M15.975 346.621C12.847 345.729 9.71903 344.836 9.38403 341.6C10.78 340.429 12.177 339.257 13.574 338.086C18.433 341.042 18.768 344.278 15.975 346.621ZM16.367 335.743C11.507 332.786 5.921 337.472 7.987 342.772C13.182 348.964 17.706 348.685 20.5 346.342C17.037 342.214 20.5 346.342 20.165 343.106C18.433 341.042 16.702 338.978 16.367 335.743Z" fill="#E5E5E5" fill-opacity="0.9"/>
<path fill-rule="evenodd" clip-rule="evenodd" d="M145.28 466.725C148.743 470.853 150.14 469.681 153.268 470.574C156.061 468.231 146.342 462.318 145.28 466.725Z" fill="#231F20"/>
<path fill-rule="evenodd" clip-rule="evenodd" d="M48.594 368.489C45.466 367.597 45.466 367.597 44.07 368.768C45.801 370.832 48.929 371.725 48.594 368.489Z" fill="#E5E5E5" fill-opacity="0.9"/>
<path fill-rule="evenodd" clip-rule="evenodd" d="M124.836 445.194C123.105 443.129 121.708 444.301 119.977 442.237C118.58 443.408 118.58 443.408 117.184 444.58C120.647 448.708 123.775 449.601 124.836 445.194Z" fill="#E5E5E5" fill-opacity="0.9"/>
<path fill-rule="evenodd" clip-rule="evenodd" d="M478.343 795.692C479.74 794.52 476.611 793.628 478.343 795.692C476.611 793.628 478.343 795.692 478.343 795.692Z" fill="#231F20"/>
<path fill-rule="evenodd" clip-rule="evenodd" d="M45.7451 384.946C42.2821 380.818 39.4892 383.161 39.8242 386.396C43.2862 390.524 44.3481 386.117 45.7451 384.946Z" fill="#E5E5E5" fill-opacity="0.9"/>
<path fill-rule="evenodd" clip-rule="evenodd" d="M12.79 359.842C9.32704 355.715 8.26508 360.122 6.86908 361.293C9.99708 362.186 11.393 361.014 12.79 359.842Z" fill="#E5E5E5" fill-opacity="0.9"/>
<path fill-rule="evenodd" clip-rule="evenodd" d="M254.028 593.526C253.693 590.291 247.437 588.506 246.04 589.677C248.107 594.977 254.028 593.526 254.028 593.526Z" fill="#231F20"/>
<path fill-rule="evenodd" clip-rule="evenodd" d="M30.1041 380.483C28.7081 381.655 28.7081 381.655 27.3111 382.826C30.7741 386.955 30.774 386.955 33.902 387.847C35.299 386.675 35.2991 386.675 36.6951 385.504C34.9641 383.44 30.1041 380.483 30.1041 380.483Z" fill="#E5E5E5" fill-opacity="0.9"/>
<path fill-rule="evenodd" clip-rule="evenodd" d="M51.5511 411.724C51.8861 414.959 57.8071 413.509 51.5511 411.724V411.724Z" fill="#E5E5E5" fill-opacity="0.9"/>
<path fill-rule="evenodd" clip-rule="evenodd" d="M236.657 587C234.925 584.935 235.26 588.171 236.657 587V587Z" fill="#231F20"/>
<path fill-rule="evenodd" clip-rule="evenodd" d="M14.799 379.256C17.927 380.149 16.195 378.085 14.799 379.256C16.195 378.085 14.799 379.256 14.799 379.256Z" fill="#E5E5E5" fill-opacity="0.9"/>
<path fill-rule="evenodd" clip-rule="evenodd" d="M127.067 496.07C128.798 498.134 130.195 496.962 131.926 499.026C134.384 493.448 126.397 489.599 127.067 496.07Z" fill="#E5E5E5" fill-opacity="0.9"/>
<path fill-rule="evenodd" clip-rule="evenodd" d="M125.336 494.006C125.336 494.006 123.604 491.942 125.336 494.006C122.208 493.114 123.939 495.178 125.336 494.006Z" fill="#E5E5E5" fill-opacity="0.9"/>
<path fill-rule="evenodd" clip-rule="evenodd" d="M4.01807 377.75C2.28707 375.686 0.555058 373.622 -0.840942 374.794C-3.63394 377.137 1.22507 380.093 4.01807 377.75Z" fill="#E5E5E5" fill-opacity="0.9"/>
<path fill-rule="evenodd" clip-rule="evenodd" d="M425.501 783.754C426.897 782.583 425.166 780.519 425.501 783.754C423.769 781.69 425.501 783.754 425.501 783.754Z" fill="#231F20"/>
<path fill-rule="evenodd" clip-rule="evenodd" d="M46.9699 426.116C46.9699 426.116 48.3669 424.945 46.9699 426.116C45.2379 424.052 46.9699 426.116 46.9699 426.116Z" fill="#E5E5E5" fill-opacity="0.9"/>
<path fill-rule="evenodd" clip-rule="evenodd" d="M87.4651 480.06C80.5391 471.804 74.6171 473.255 73.5561 477.662C80.1471 482.683 83.2751 483.575 87.4651 480.06Z" fill="#E5E5E5" fill-opacity="0.9"/>
<path fill-rule="evenodd" clip-rule="evenodd" d="M116.899 515.149C118.296 513.977 115.168 513.085 113.436 511.021C112.04 512.193 112.04 512.192 110.643 513.363C113.771 514.256 115.168 513.084 116.899 515.149Z" fill="#E5E5E5" fill-opacity="0.9"/>
<path fill-rule="evenodd" clip-rule="evenodd" d="M99.9199 497.744C98.1879 495.68 95.06 494.788 95.395 498.023C95.395 498.023 98.5229 498.916 99.9199 497.744Z" fill="#E5E5E5" fill-opacity="0.9"/>
<path fill-rule="evenodd" clip-rule="evenodd" d="M85.2841 502.989C83.8871 504.16 85.6191 506.224 89.0821 510.353C89.4171 513.588 87.6851 511.524 84.8921 513.867C91.8181 522.123 95.6731 515.373 101.929 517.158C104.722 514.815 107.515 512.472 110.643 513.365C107.907 501.594 87.7421 497.41 85.2841 502.989Z" fill="#E5E5E5" fill-opacity="0.9"/>
<path fill-rule="evenodd" clip-rule="evenodd" d="M114.776 523.963C113.044 521.899 109.916 521.006 110.251 524.242C111.982 526.306 113.379 525.135 114.776 523.963Z" fill="#E5E5E5" fill-opacity="0.9"/>
<path fill-rule="evenodd" clip-rule="evenodd" d="M57.915 473.2C57.58 469.964 49.5921 466.115 51.6591 471.415C56.5181 474.371 56.183 471.136 57.915 473.2Z" fill="#E5E5E5" fill-opacity="0.9"/>
<path fill-rule="evenodd" clip-rule="evenodd" d="M177.836 590.627C179.233 589.455 174.373 586.499 172.642 584.435C173.312 590.906 176.44 591.799 177.836 590.627Z" fill="#231F20"/>
<path fill-rule="evenodd" clip-rule="evenodd" d="M131.364 552.247C132.761 551.076 132.761 551.076 131.364 552.247C131.029 549.011 131.364 552.247 131.364 552.247Z" fill="#E5E5E5" fill-opacity="0.9"/>
<path fill-rule="evenodd" clip-rule="evenodd" d="M5.18698 433.035C6.58298 431.863 5.18698 433.035 3.45498 430.971C2.05798 432.142 3.78998 434.206 5.18698 433.035Z" fill="#E5E5E5" fill-opacity="0.9"/>
<path fill-rule="evenodd" clip-rule="evenodd" d="M111.591 537.186C112.987 536.014 111.256 533.95 111.591 537.186C111.256 533.95 111.591 537.186 111.591 537.186Z" fill="#E5E5E5" fill-opacity="0.9"/>
<path fill-rule="evenodd" clip-rule="evenodd" d="M133.43 557.547C135.161 559.611 134.1 564.019 137.563 568.147C138.624 563.739 136.893 561.675 133.43 557.547Z" fill="#E5E5E5" fill-opacity="0.9"/>
<path fill-rule="evenodd" clip-rule="evenodd" d="M-0.734012 434.485C0.661988 433.314 0.661988 433.314 -0.734012 434.485C-1.06901 431.25 -0.734012 434.485 -0.734012 434.485Z" fill="#E5E5E5" fill-opacity="0.9"/>
<path fill-rule="evenodd" clip-rule="evenodd" d="M123.711 551.634C121.98 549.57 120.583 550.741 119.187 551.913C119.187 551.913 120.583 550.741 122.315 552.805L123.711 551.634Z" fill="#E5E5E5" fill-opacity="0.9"/>
<path fill-rule="evenodd" clip-rule="evenodd" d="M51.936 488.764C50.54 489.936 47.077 485.808 43.614 481.68C42.217 482.851 39.089 481.959 39.424 485.194C41.491 490.494 49.143 491.107 51.936 488.764Z" fill="#E5E5E5" fill-opacity="0.9"/>
<path fill-rule="evenodd" clip-rule="evenodd" d="M99.4131 536.851C97.3471 531.552 88.2971 532.11 88.6321 535.345C92.0951 539.473 94.8881 537.13 98.3511 541.258C98.3511 541.258 96.2851 535.959 99.4131 536.851Z" fill="#E5E5E5" fill-opacity="0.9"/>
<path fill-rule="evenodd" clip-rule="evenodd" d="M197.494 633.918C197.159 630.682 192.635 630.961 191.238 632.133C194.701 636.261 195.763 631.854 197.494 633.918Z" fill="#231F20"/>
<path fill-rule="evenodd" clip-rule="evenodd" d="M9.26288 457.748C6.13488 456.855 1.27491 453.899 -1.85309 453.006C-1.18309 459.477 -4.31111 458.585 -5.37311 462.992C-0.513107 465.949 2.61485 466.841 7.13885 466.562C10.2679 467.454 13.7299 471.583 18.2549 471.304C14.7919 467.175 11.6639 466.283 8.20087 462.155C4.73787 458.027 9.59788 460.983 9.26288 457.748Z" fill="#E5E5E5" fill-opacity="0.9"/>
<path fill-rule="evenodd" clip-rule="evenodd" d="M71.9879 521.176C73.3839 520.004 73.3839 520.004 71.9879 521.176C70.2559 519.112 71.9879 521.176 71.9879 521.176Z" fill="#E5E5E5" fill-opacity="0.9"/>
<path fill-rule="evenodd" clip-rule="evenodd" d="M226.929 669.007C226.595 665.771 225.198 666.943 226.929 669.007C223.801 668.114 225.533 670.178 226.929 669.007Z" fill="#231F20"/>
<path fill-rule="evenodd" clip-rule="evenodd" d="M20.991 483.075C17.863 482.182 16.4659 483.354 13.0029 479.226C11.6069 480.397 11.6069 480.397 11.6069 480.397C10.2099 481.569 15.0699 484.525 14.0079 488.932C18.8679 491.889 19.594 484.246 20.991 483.075Z" fill="#E5E5E5" fill-opacity="0.9"/>
<path fill-rule="evenodd" clip-rule="evenodd" d="M16.132 480.118C16.132 480.118 17.528 478.947 16.132 480.118C14.4 478.054 16.132 480.118 16.132 480.118Z" fill="#E5E5E5" fill-opacity="0.9"/>
<path fill-rule="evenodd" clip-rule="evenodd" d="M98.9639 561.844C95.8359 560.951 95.8359 560.951 92.7079 560.058C93.0429 563.294 97.5679 563.015 98.9639 561.844Z" fill="#E5E5E5" fill-opacity="0.9"/>
<path fill-rule="evenodd" clip-rule="evenodd" d="M7.08203 480.676C3.95403 479.784 -1.23997 473.592 -3.69897 479.17C-1.96697 481.234 4.28903 483.019 7.08203 480.676Z" fill="#E5E5E5" fill-opacity="0.9"/>
<path fill-rule="evenodd" clip-rule="evenodd" d="M111.755 582.763C113.151 581.591 111.42 579.527 111.755 582.763C111.42 579.527 111.755 582.763 111.755 582.763Z" fill="#E5E5E5" fill-opacity="0.9"/>
<path fill-rule="evenodd" clip-rule="evenodd" d="M106.894 579.806C106.894 579.806 108.291 578.635 106.894 579.806C105.163 577.742 106.894 579.806 106.894 579.806Z" fill="#E5E5E5" fill-opacity="0.9"/>
<path fill-rule="evenodd" clip-rule="evenodd" d="M102.036 576.85C103.433 575.678 103.433 575.678 102.036 576.85C100.304 574.785 102.036 576.85 102.036 576.85Z" fill="#E5E5E5" fill-opacity="0.9"/>
<path fill-rule="evenodd" clip-rule="evenodd" d="M97.5119 577.129C99.5779 582.428 102.371 580.085 105.499 580.978C106.896 579.806 100.305 574.785 97.5119 577.129Z" fill="#E5E5E5" fill-opacity="0.9"/>
<path fill-rule="evenodd" clip-rule="evenodd" d="M270.495 737.957C268.763 735.893 267.367 737.065 265.97 738.237C269.098 739.129 270.83 741.193 270.495 737.957Z" fill="#231F20"/>
<path fill-rule="evenodd" clip-rule="evenodd" d="M29.926 510.744C28.195 508.68 25.067 507.788 23.67 508.959C24.005 512.195 27.133 513.088 29.926 510.744Z" fill="#E5E5E5" fill-opacity="0.9"/>
<path fill-rule="evenodd" clip-rule="evenodd" d="M15.3469 501.875C10.1529 495.683 5.29294 492.726 2.49994 495.07C1.43894 499.477 1.77296 502.712 5.23596 506.84C2.77796 512.419 -0.685028 508.291 -3.47803 510.634C-1.41203 515.934 1.38197 513.591 4.84497 517.719C7.63797 515.376 10.431 513.033 13.559 513.925C12.889 507.454 9.42592 503.326 15.3469 501.875Z" fill="#E5E5E5" fill-opacity="0.9"/>
<path fill-rule="evenodd" clip-rule="evenodd" d="M31.6001 526.923C32.9971 525.751 28.137 522.795 28.472 526.03C30.204 528.094 29.8691 524.859 31.6001 526.923Z" fill="#E5E5E5" fill-opacity="0.9"/>
<path fill-rule="evenodd" clip-rule="evenodd" d="M215.978 709.842C216.313 713.078 222.569 714.863 215.978 709.842V709.842Z" fill="#231F20"/>
<path fill-rule="evenodd" clip-rule="evenodd" d="M214.581 711.014C215.978 709.843 212.85 708.95 212.85 708.95C211.453 710.122 212.85 708.95 214.581 711.014Z" fill="#231F20"/>
<path fill-rule="evenodd" clip-rule="evenodd" d="M108.513 610.098C106.447 604.798 100.526 606.249 98.7939 604.185C100.861 609.485 106.782 608.034 108.513 610.098Z" fill="#E5E5E5" fill-opacity="0.9"/>
<path fill-rule="evenodd" clip-rule="evenodd" d="M43.3291 552.25C44.7261 551.078 43.3291 552.25 43.3291 552.25C41.5981 550.186 43.3291 552.25 43.3291 552.25Z" fill="#E5E5E5" fill-opacity="0.9"/>
<path fill-rule="evenodd" clip-rule="evenodd" d="M14.8979 526.868C10.0389 523.911 3.78189 522.126 0.988892 524.469C1.32389 527.705 7.57986 529.49 10.3729 527.147C13.8359 531.275 13.5009 528.039 15.2329 530.103C15.2329 530.103 13.5019 528.039 14.8979 526.868Z" fill="#E5E5E5" fill-opacity="0.9"/>
<path fill-rule="evenodd" clip-rule="evenodd" d="M30.4819 545.444C27.0189 541.316 27.353 544.552 24.225 543.659C22.494 541.595 17.6339 538.639 16.2379 539.81C13.4449 542.153 18.304 545.11 21.767 549.238C22.494 541.595 27.6879 547.787 30.4819 545.444Z" fill="#E5E5E5" fill-opacity="0.9"/>
<path fill-rule="evenodd" clip-rule="evenodd" d="M66.509 585.552C64.777 583.488 60.253 583.768 57.125 582.875C55.728 584.047 62.319 589.067 65.447 589.959C66.844 588.788 65.112 586.724 66.509 585.552Z" fill="#E5E5E5" fill-opacity="0.9"/>
<path fill-rule="evenodd" clip-rule="evenodd" d="M58.52 581.705C53.661 578.748 49.863 571.384 46.008 578.135C47.739 580.199 49.136 579.027 50.533 577.856C52.264 579.92 55.727 584.048 58.52 581.705Z" fill="#E5E5E5" fill-opacity="0.9"/>
<path fill-rule="evenodd" clip-rule="evenodd" d="M188.495 708.281C189.892 707.11 188.495 708.281 186.764 706.217L188.495 708.281Z" fill="#E5E5E5"/>
<path fill-rule="evenodd" clip-rule="evenodd" d="M2.66406 540.647C-2.19594 537.691 -6.71992 537.97 -7.78192 542.377C-4.31892 546.505 -1.19095 547.398 1.60205 545.054C2.99905 543.883 -0.128937 542.99 2.66406 540.647Z" fill="#E5E5E5" fill-opacity="0.9"/>
<path fill-rule="evenodd" clip-rule="evenodd" d="M46.678 584.605C46.343 581.37 41.818 581.649 40.086 579.584C38.69 580.756 43.55 583.713 46.678 584.605Z" fill="#E5E5E5" fill-opacity="0.9"/>
<path fill-rule="evenodd" clip-rule="evenodd" d="M111.47 653.333L109.739 651.269C109.739 651.269 112.867 652.161 111.47 653.333Z" fill="#E5E5E5" fill-opacity="0.9"/>
<path fill-rule="evenodd" clip-rule="evenodd" d="M8.52808 553.31C8.52808 553.31 6.79708 551.246 8.52808 553.31C6.79708 551.246 7.13208 554.482 8.52808 553.31Z" fill="#E5E5E5" fill-opacity="0.9"/>
<path fill-rule="evenodd" clip-rule="evenodd" d="M7.13208 554.482L5.40106 552.417L4.00409 553.589L5.73608 555.652L7.13208 554.482Z" fill="#E5E5E5" fill-opacity="0.9"/>
<path fill-rule="evenodd" clip-rule="evenodd" d="M77.4531 632.637C75.7211 630.573 72.2581 626.445 71.1961 630.852C72.9281 632.916 76.0561 633.809 77.4531 632.637Z" fill="#E5E5E5" fill-opacity="0.9"/>
<path fill-rule="evenodd" clip-rule="evenodd" d="M45.5601 603.126C43.8281 601.062 43.828 601.062 42.097 598.998L40.7001 600.17C42.4321 602.234 42.4321 602.234 44.1631 604.298C45.5601 603.126 45.5601 603.126 45.5601 603.126Z" fill="#E5E5E5" fill-opacity="0.9"/>
<path fill-rule="evenodd" clip-rule="evenodd" d="M79.854 641.172C76.726 640.28 76.726 640.28 75.33 641.451C75.33 641.451 78.458 642.344 79.854 641.172Z" fill="#E5E5E5" fill-opacity="0.9"/>
<path fill-rule="evenodd" clip-rule="evenodd" d="M-8.23102 567.369C-9.62702 568.541 -7.89599 570.605 -9.29199 571.776C-4.43299 574.733 -1.63899 572.39 2.88501 572.111C0.81901 566.811 -3.37102 570.326 -8.23102 567.369Z" fill="#E5E5E5" fill-opacity="0.9"/>
<path fill-rule="evenodd" clip-rule="evenodd" d="M29.5269 609.542C27.7959 607.478 26.3989 608.65 25.0029 609.821C25.0029 609.821 26.3989 608.65 28.1309 610.714C28.1309 610.714 28.1309 610.714 29.5269 609.542Z" fill="#E5E5E5" fill-opacity="0.9"/>
<path fill-rule="evenodd" clip-rule="evenodd" d="M75.9419 662.037C74.2109 659.973 72.814 661.144 72.814 661.144C69.686 660.252 76.2769 665.272 75.9419 662.037Z" fill="#E5E5E5" fill-opacity="0.9"/>
<path fill-rule="evenodd" clip-rule="evenodd" d="M43.322 640.169L41.59 638.105C39.859 636.041 39.859 636.041 38.127 633.977C36.731 635.149 42.987 636.934 43.322 640.169Z" fill="#E5E5E5" fill-opacity="0.9"/>
<path fill-rule="evenodd" clip-rule="evenodd" d="M223.567 812.489C220.104 808.361 216.976 807.469 217.311 810.704C220.774 814.832 222.505 816.896 223.567 812.489Z" fill="#231F20"/>
<path fill-rule="evenodd" clip-rule="evenodd" d="M178.827 776.173C176.033 778.516 179.161 779.409 180.893 781.473C183.686 779.13 183.686 779.13 178.827 776.173Z" fill="#E5E5E5"/>
<path fill-rule="evenodd" clip-rule="evenodd" d="M37.3999 641.62L35.6689 639.556L34.2719 640.727L36.0039 642.791C37.3999 641.62 37.3999 641.62 37.3999 641.62Z" fill="#E5E5E5" fill-opacity="0.9"/>
<path fill-rule="evenodd" clip-rule="evenodd" d="M2.37792 611.217C3.77492 610.046 2.37796 611.217 0.64696 609.153C2.37796 611.217 2.37792 611.217 2.37792 611.217Z" fill="#E5E5E5" fill-opacity="0.9"/>
<path fill-rule="evenodd" clip-rule="evenodd" d="M46.3931 655.176C42.9301 651.047 39.8021 650.155 36.6741 649.263C35.6121 653.67 45.3311 659.583 46.3931 655.176Z" fill="#E5E5E5" fill-opacity="0.9"/>
<path fill-rule="evenodd" clip-rule="evenodd" d="M90.741 702.369C90.741 702.369 89.01 700.305 90.741 702.369C87.613 701.477 87.6129 701.477 87.6129 701.477L89.3439 703.541L90.741 702.369Z" fill="#E5E5E5" fill-opacity="0.9"/>
<path fill-rule="evenodd" clip-rule="evenodd" d="M96.27 711.798C97.667 710.626 96.27 711.798 96.27 711.798C94.539 709.734 96.27 711.798 96.27 711.798Z" fill="#E5E5E5" fill-opacity="0.9"/>
<path fill-rule="evenodd" clip-rule="evenodd" d="M108.726 729.482C109.061 732.717 113.251 729.202 108.726 729.482V729.482Z" fill="#E5E5E5" fill-opacity="0.9"/>
<path fill-rule="evenodd" clip-rule="evenodd" d="M27.96 653.056C29.356 651.884 24.497 648.928 24.832 652.164C24.832 652.164 24.832 652.164 27.96 653.056Z" fill="#E5E5E5" fill-opacity="0.9"/>
<path fill-rule="evenodd" clip-rule="evenodd" d="M43.543 671.632C43.543 671.632 41.812 669.568 43.543 671.632C40.415 670.74 40.4149 670.74 40.4149 670.74L42.147 672.804L43.543 671.632Z" fill="#E5E5E5" fill-opacity="0.9"/>
<path fill-rule="evenodd" clip-rule="evenodd" d="M155.141 781.976C156.538 780.805 151.678 777.848 151.678 777.848C150.616 782.255 155.141 781.976 155.141 781.976Z" fill="#E5E5E5" fill-opacity="0.9"/>
<path fill-rule="evenodd" clip-rule="evenodd" d="M65.717 695.23C63.986 693.166 62.5891 694.337 61.1931 695.509C62.9241 697.573 62.924 697.573 65.717 695.23Z" fill="#E5E5E5" fill-opacity="0.9"/>
<path fill-rule="evenodd" clip-rule="evenodd" d="M6.73291 653.28L5.00189 651.216C3.60489 652.387 6.73291 653.28 6.73291 653.28Z" fill="#E5E5E5" fill-opacity="0.9"/>
<path fill-rule="evenodd" clip-rule="evenodd" d="M47.2831 693.111C45.5521 691.047 44.1551 692.218 47.2831 693.111C42.7581 693.39 47.6181 696.347 47.2831 693.111Z" fill="#E5E5E5" fill-opacity="0.9"/>
<path fill-rule="evenodd" clip-rule="evenodd" d="M-10.3041 649.989C-9.96913 653.225 -1.98213 657.074 -0.585132 655.902C0.141868 648.259 -7.17613 650.882 -10.3041 649.989Z" fill="#E5E5E5" fill-opacity="0.9"/>
<path fill-rule="evenodd" clip-rule="evenodd" d="M233.057 874.859C231.326 872.795 229.929 873.966 228.198 871.902C226.801 873.074 231.996 879.266 233.057 874.859Z" fill="#231F20"/>
<path fill-rule="evenodd" clip-rule="evenodd" d="M55.884 717.545C52.755 716.653 51.024 714.589 47.896 713.696C47.896 713.696 54.487 718.717 55.884 717.545Z" fill="#E5E5E5" fill-opacity="0.9"/>
<path fill-rule="evenodd" clip-rule="evenodd" d="M201.442 862.698L199.71 860.634C198.314 861.806 201.442 862.698 201.442 862.698Z" fill="#231F20"/>
<path fill-rule="evenodd" clip-rule="evenodd" d="M45.438 719.275C45.438 719.275 43.706 717.21 45.438 719.275C44.041 720.447 45.438 719.275 45.438 719.275Z" fill="#E5E5E5" fill-opacity="0.9"/>
<path fill-rule="evenodd" clip-rule="evenodd" d="M87.7201 761.169C89.1171 759.998 85.9891 759.104 85.9891 759.104C87.7201 761.168 86.3241 762.341 87.7201 761.169Z" fill="#E5E5E5" fill-opacity="0.9"/>
<path fill-rule="evenodd" clip-rule="evenodd" d="M17.677 700.364C14.884 702.707 22.872 706.556 24.603 708.62C26 707.449 21.14 704.492 17.677 700.364Z" fill="#E5E5E5" fill-opacity="0.9"/>
<path fill-rule="evenodd" clip-rule="evenodd" d="M28.066 712.748C29.462 711.577 26.334 710.684 26.334 710.684C28.066 712.748 28.066 712.748 28.066 712.748Z" fill="#E5E5E5" fill-opacity="0.9"/>
<path fill-rule="evenodd" clip-rule="evenodd" d="M-6.61995 685.58C-1.42495 691.772 1.36803 689.429 7.95903 694.45C9.02103 690.043 -4.16095 680.001 -6.61995 685.58Z" fill="#E5E5E5" fill-opacity="0.9"/>
<path fill-rule="evenodd" clip-rule="evenodd" d="M286.619 967.073C280.363 965.283 289.021 975.613 286.619 967.073V967.073Z" fill="#231F20"/>
<path fill-rule="evenodd" clip-rule="evenodd" d="M72.0231 770.821C69.2301 773.164 74.0891 776.12 75.8211 778.184C77.5521 780.248 78.9491 779.077 77.2171 777.013C75.4861 774.949 76.8821 773.777 72.0231 770.821Z" fill="#E5E5E5" fill-opacity="0.9"/>
<path fill-rule="evenodd" clip-rule="evenodd" d="M69.23 773.163L67.499 771.099C67.499 771.099 68.896 769.928 69.23 773.163Z" fill="#E5E5E5" fill-opacity="0.9"/>
<path fill-rule="evenodd" clip-rule="evenodd" d="M52.585 758.995C50.853 756.93 47.7249 756.038 48.0599 759.274C49.4569 758.102 51.188 760.166 52.585 758.995Z" fill="#E5E5E5" fill-opacity="0.9"/>
<path fill-rule="evenodd" clip-rule="evenodd" d="M46.328 757.209C47.725 756.038 45.993 753.974 46.328 757.209C44.597 755.145 46.328 757.209 46.328 757.209Z" fill="#E5E5E5" fill-opacity="0.9"/>
<path fill-rule="evenodd" clip-rule="evenodd" d="M100.062 807.081C96.599 802.953 93.471 802.06 90.008 797.932C88.611 799.104 97.269 809.424 100.062 807.081Z" fill="#E5E5E5"/>
<path fill-rule="evenodd" clip-rule="evenodd" d="M199.425 931.202C197.694 929.142 197.694 929.142 199.425 931.202C196.297 930.312 196.297 930.312 196.297 930.312L198.028 932.373C199.425 931.203 199.425 931.202 199.425 931.202Z" fill="#231F20"/>
<path fill-rule="evenodd" clip-rule="evenodd" d="M30.5181 795.089C28.7861 793.025 28.7861 793.025 30.5181 795.089C27.3901 794.196 27.3901 794.196 27.3901 794.196L29.1211 796.26C30.5181 795.089 30.5181 795.089 30.5181 795.089Z" fill="#E5E5E5" fill-opacity="0.9"/>
<path fill-rule="evenodd" clip-rule="evenodd" d="M81.7911 850.539C83.5231 852.603 85.2541 854.667 88.3821 855.56C89.7791 854.388 82.8531 846.132 81.7911 850.539Z" fill="#231F20"/>
<path fill-rule="evenodd" clip-rule="evenodd" d="M19.7369 793.583C18.6749 797.99 22.1379 802.118 27.3319 808.31C31.5219 804.796 24.5959 796.539 19.7369 793.583Z" fill="#E5E5E5" fill-opacity="0.9"/>
<path fill-rule="evenodd" clip-rule="evenodd" d="M57.494 835.757C57.829 838.992 61.2919 843.12 64.4199 844.013C62.6889 841.949 60.957 839.885 57.494 835.757Z" fill="#E5E5E5"/>
<path fill-rule="evenodd" clip-rule="evenodd" d="M52.913 850.148C54.309 848.977 51.181 848.085 49.45 846.021C51.181 848.085 51.181 848.084 52.913 850.148Z" fill="#E5E5E5"/>
<path fill-rule="evenodd" clip-rule="evenodd" d="M56.376 854.277C56.376 854.277 56.041 851.042 56.376 854.277C54.644 852.213 54.644 852.213 56.376 854.277Z" fill="#E5E5E5"/>
<path fill-rule="evenodd" clip-rule="evenodd" d="M36.153 864.209C37.884 866.273 37.55 863.037 36.153 864.209V864.209Z" fill="#231F20"/>
<path fill-rule="evenodd" clip-rule="evenodd" d="M182.211 1058.17C181.876 1054.94 180.479 1056.11 182.211 1058.17C180.479 1056.11 182.211 1058.17 182.211 1058.17Z" fill="#231F20"/>
<path fill-rule="evenodd" clip-rule="evenodd" d="M131.941 1012.43L130.209 1010.36L128.813 1011.53L130.544 1013.6C130.544 1013.6 130.544 1013.6 131.941 1012.43Z" fill="#231F20"/>
<path fill-rule="evenodd" clip-rule="evenodd" d="M66.4231 951.343C64.6911 949.283 61.5631 948.393 60.1671 949.563C60.5011 952.793 63.6301 953.693 66.4231 951.343Z" fill="#231F20"/>
<path fill-rule="evenodd" clip-rule="evenodd" d="M173.496 1061.97C173.496 1061.97 174.893 1060.79 173.496 1061.97C171.764 1059.9 173.496 1061.97 173.496 1061.97Z" fill="#231F20"/>
<path fill-rule="evenodd" clip-rule="evenodd" d="M144.418 77.1126C145.814 75.9406 146.484 82.4126 149.277 80.0686C150.674 78.8976 148.942 76.8336 148.942 76.8336C147.211 74.7696 145.814 75.9406 145.814 75.9406C146.876 71.5336 150.004 72.4266 151.401 71.2546L153.132 73.3186C154.864 75.3826 153.467 76.5546 156.93 80.6826C155.868 85.0896 152.405 80.9617 151.009 82.1337C149.612 83.3047 143.356 81.5196 144.418 77.1126Z" fill="#231F20"/>
<path fill-rule="evenodd" clip-rule="evenodd" d="M99.891 160.181C101.287 159.009 100.952 155.773 99.891 160.181C96.763 159.288 96.763 159.288 99.891 160.181Z" fill="#231F20"/>
<path fill-rule="evenodd" clip-rule="evenodd" d="M476.741 589.56C473.613 588.667 470.15 584.539 467.356 586.882C470.485 587.775 473.948 591.903 476.741 589.56Z" fill="#231F20"/>
<path fill-rule="evenodd" clip-rule="evenodd" d="M150.767 314.429C149.035 312.365 149.37 315.6 147.639 313.536C146.242 314.708 151.102 317.664 149.705 318.836C151.436 320.9 147.974 316.772 150.767 314.429Z" fill="#231F20"/>
<path fill-rule="evenodd" clip-rule="evenodd" d="M408.365 632.852C408.365 632.852 411.493 633.745 408.365 632.852C409.761 631.681 405.237 631.96 408.365 632.852Z" fill="#231F20"/>
<path fill-rule="evenodd" clip-rule="evenodd" d="M98.1379 421.875C96.4069 419.811 90.486 421.261 95.345 424.218C96.742 423.046 97.0769 426.282 98.1379 421.875Z" fill="#E5E5E5" fill-opacity="0.9"/>
<path fill-rule="evenodd" clip-rule="evenodd" d="M175.997 528.872C177.394 527.7 175.662 525.636 175.997 528.872C174.266 526.808 172.534 524.744 173.931 523.572C172.2 521.508 169.406 523.851 171.138 525.915C174.601 530.043 174.266 526.808 175.997 528.872Z" fill="#231F20"/>
<path fill-rule="evenodd" clip-rule="evenodd" d="M154.714 543.209C147.788 534.953 137.007 533.447 130.416 528.426C129.019 529.598 132.148 530.491 132.148 530.491C138.404 532.276 146.726 539.36 154.714 543.209Z" fill="#E5E5E5" fill-opacity="0.9"/>
<path fill-rule="evenodd" clip-rule="evenodd" d="M127.231 541.648C125.834 542.82 130.694 545.776 129.297 546.948C131.029 549.012 130.359 542.541 127.231 541.648Z" fill="#E5E5E5" fill-opacity="0.9"/>
<path fill-rule="evenodd" clip-rule="evenodd" d="M57.1889 480.842C57.1889 480.842 55.7919 482.013 57.1889 480.842C55.7919 482.013 54.0609 479.949 57.1889 480.842ZM59.9819 478.499C56.8539 477.606 50.9329 479.057 51.2679 482.292C54.3959 483.185 59.2549 486.142 60.3169 481.734C57.1889 480.842 57.1889 480.842 59.9819 478.499Z" fill="#E5E5E5" fill-opacity="0.9"/>
<path fill-rule="evenodd" clip-rule="evenodd" d="M23.6121 523.074C25.0091 521.903 25.0091 521.903 23.6121 523.074C26.4061 520.731 20.1501 518.946 20.4841 522.182C23.6131 523.074 25.0091 521.903 23.6121 523.074C25.3441 525.138 25.3441 525.138 23.6121 523.074Z" fill="#E5E5E5" fill-opacity="0.9"/>
<path fill-rule="evenodd" clip-rule="evenodd" d="M45.8381 620.476C52.0941 622.261 44.1061 618.412 45.8381 620.476C44.4411 621.647 45.8381 620.476 45.8381 620.476Z" fill="#E5E5E5" fill-opacity="0.9"/>
<path fill-rule="evenodd" clip-rule="evenodd" d="M18.633 636.264C16.901 634.199 15.17 632.135 16.566 630.964C18.298 633.028 19.694 631.856 21.426 633.92C20.029 635.092 20.029 635.092 18.633 636.264ZM25.224 641.284C23.492 639.22 23.492 639.22 21.761 637.156L23.157 635.984C24.889 638.049 26.62 640.113 25.224 641.284ZM24.554 634.813C21.091 630.685 17.963 629.793 16.231 627.729C12.768 623.601 22.153 626.278 17.293 623.321C20.086 620.978 25.281 627.17 28.409 628.063C26.008 619.527 15.227 618.022 6.90399 610.938C4.44599 616.516 14.892 614.787 15.562 621.258C12.434 620.365 7.90903 620.644 5.11603 622.987C3.71903 624.158 7.18198 628.287 4.38898 630.63C6.11998 632.694 6.11999 632.693 7.85199 634.758C11.315 638.886 12.711 637.714 16.174 641.842C20.699 641.563 25.893 647.756 30.083 644.242C26.62 640.114 24.889 638.049 24.554 634.813Z" fill="#E5E5E5" fill-opacity="0.9"/>
<path fill-rule="evenodd" clip-rule="evenodd" d="M-12.3129 630.575C-16.8369 630.854 -8.51488 637.939 -5.05188 642.067C-1.92388 642.959 0.869152 640.616 1.93115 636.209C-2.92885 633.252 -11.5859 622.932 -12.3129 630.575C-8.84987 634.703 -4.65987 631.188 -2.59387 636.488C-3.98987 637.659 -10.2459 635.874 -12.3129 630.575Z" fill="#E5E5E5" fill-opacity="0.9"/>
</svg>