<svg width="697" height="1062" viewBox="0 0 697 1062" fill="none" xmlns="http://www.w3.org/2000/svg">
<path fill-rule="evenodd" clip-rule="evenodd" d="M601.123 21.1616C604.586 17.0336 605.648 21.4406 603.916 23.5046C602.52 22.3336 602.52 22.3336 601.123 21.1616Z" fill="#E5E5E5" fill-opacity="0.9"/>
<path fill-rule="evenodd" clip-rule="evenodd" d="M669.939 1.5266C673.402 -2.6024 671.336 2.6976 674.129 5.0406C672.398 7.1046 673.067 0.6336 669.939 1.5266Z" fill="#E5E5E5" fill-opacity="0.9"/>
<path fill-rule="evenodd" clip-rule="evenodd" d="M512.932 154.657C512.932 154.657 514.664 152.593 512.932 154.657C514.329 155.829 512.932 154.657 512.932 154.657Z" fill="#231F20"/>
<path fill-rule="evenodd" clip-rule="evenodd" d="M650.559 27.4666C652.291 25.4026 653.687 26.5736 655.084 27.7456C653.352 29.8096 650.559 27.4666 650.559 27.4666Z" fill="#E5E5E5" fill-opacity="0.9"/>
<path fill-rule="evenodd" clip-rule="evenodd" d="M675.527 6.21259C674.13 5.04159 677.258 4.14859 677.258 4.14859C678.655 5.32059 677.258 4.14859 675.527 6.21259Z" fill="#E5E5E5" fill-opacity="0.9"/>
<path fill-rule="evenodd" clip-rule="evenodd" d="M525.443 151.087C524.047 149.915 525.443 151.087 527.175 149.023C528.572 150.194 526.84 152.258 525.443 151.087Z" fill="#231F20"/>
<path fill-rule="evenodd" clip-rule="evenodd" d="M0.0155867 666.821C1.74699 664.757 3.14369 665.929 3.14369 665.929C4.87519 663.864 -0.319413 670.057 0.0155867 666.821Z" fill="#231F20"/>
<path fill-rule="evenodd" clip-rule="evenodd" d="M468.811 258.307C473.671 255.35 471.269 263.886 468.811 258.307V258.307Z" fill="#231F20"/>
<path fill-rule="evenodd" clip-rule="evenodd" d="M596.049 143.501C592.921 144.394 594.653 142.33 596.049 143.501V143.501Z" fill="#E5E5E5" fill-opacity="0.9"/>
<path fill-rule="evenodd" clip-rule="evenodd" d="M338.167 391.356C338.502 388.12 342.357 394.87 338.167 391.356V391.356Z" fill="#231F20"/>
<path fill-rule="evenodd" clip-rule="evenodd" d="M243.883 481.057C247.346 476.929 250.139 479.272 251.536 480.444C248.073 484.572 244.945 485.465 243.883 481.057Z" fill="#231F20"/>
<path fill-rule="evenodd" clip-rule="evenodd" d="M426.251 317.552C427.983 315.488 431.111 314.595 433.904 316.938C430.441 321.066 427.313 321.959 426.251 317.552Z" fill="#231F20"/>
<path fill-rule="evenodd" clip-rule="evenodd" d="M618.338 148.133C616.942 146.961 620.07 146.069 621.801 144.004C623.198 145.176 623.198 145.176 624.595 146.348C619.735 149.304 620.07 146.068 618.338 148.133Z" fill="#E5E5E5" fill-opacity="0.9"/>
<path fill-rule="evenodd" clip-rule="evenodd" d="M5.15991 734.434C6.89131 732.37 15.2138 725.286 19.4036 728.8C15.6057 736.164 10.0194 731.478 5.15991 734.434Z" fill="#231F20"/>
<path fill-rule="evenodd" clip-rule="evenodd" d="M208.64 542.923L210.371 540.859L211.768 542.031L210.037 544.095C210.037 544.095 210.037 544.095 208.64 542.923Z" fill="#231F20"/>
<path fill-rule="evenodd" clip-rule="evenodd" d="M506.071 264.947C504.674 263.775 506.071 264.947 507.802 262.883C507.467 266.119 506.071 264.947 506.071 264.947Z" fill="#231F20"/>
<path fill-rule="evenodd" clip-rule="evenodd" d="M606.944 170.223C605.548 169.052 607.279 166.988 606.944 170.223C607.279 166.988 606.944 170.223 606.944 170.223Z" fill="#E5E5E5" fill-opacity="0.9"/>
<path fill-rule="evenodd" clip-rule="evenodd" d="M117.15 634.969C118.546 636.141 118.211 639.376 116.48 641.44C116.48 641.44 115.083 640.269 113.687 639.097C113.687 639.097 115.418 637.033 117.15 634.969Z" fill="#231F20"/>
<path fill-rule="evenodd" clip-rule="evenodd" d="M257.906 506.887C256.51 505.716 258.241 503.652 257.906 506.887C258.241 503.652 257.906 506.887 257.906 506.887Z" fill="#231F20"/>
<path fill-rule="evenodd" clip-rule="evenodd" d="M545.281 238.058C547.012 235.994 548.409 237.166 549.806 238.337C549.806 238.337 548.409 237.166 546.678 239.23C546.678 239.23 546.678 239.23 545.281 238.058Z" fill="#E5E5E5" fill-opacity="0.9"/>
<path fill-rule="evenodd" clip-rule="evenodd" d="M435.415 346.338C433.683 348.402 435.415 346.338 435.415 346.338C435.415 346.338 436.811 347.51 435.415 346.338Z" fill="#231F20"/>
<path fill-rule="evenodd" clip-rule="evenodd" d="M339.064 441.339C337.668 440.168 340.795 439.276 339.064 441.339C342.192 440.447 339.064 441.339 339.064 441.339Z" fill="#231F20"/>
<path fill-rule="evenodd" clip-rule="evenodd" d="M268.409 522.731C273.268 519.774 276.731 515.646 281.256 515.925C282.652 517.097 280.921 519.161 282.317 520.332C275.726 525.353 271.202 525.074 268.409 522.731Z" fill="#231F20"/>
<path fill-rule="evenodd" clip-rule="evenodd" d="M562.04 252.117C558.912 253.01 560.643 250.945 562.04 252.117V252.117Z" fill="#E5E5E5" fill-opacity="0.9"/>
<path fill-rule="evenodd" clip-rule="evenodd" d="M652.524 169.778C654.256 167.714 654.256 167.714 655.987 165.65C658.781 167.993 653.586 174.185 652.524 169.778Z" fill="#E5E5E5" fill-opacity="0.9"/>
<path fill-rule="evenodd" clip-rule="evenodd" d="M403.022 424.661C406.15 423.768 407.546 424.94 407.546 424.94L405.815 427.004C402.687 427.896 402.687 427.896 403.022 424.661Z" fill="#231F20"/>
<path fill-rule="evenodd" clip-rule="evenodd" d="M544.17 307.457C547.298 306.564 549.029 304.5 550.091 308.908C548.359 310.972 545.566 308.628 544.17 307.457Z" fill="#E5E5E5" fill-opacity="0.9"/>
<path fill-rule="evenodd" clip-rule="evenodd" d="M323.373 519.607C326.836 515.479 329.63 517.822 334.154 518.101C332.423 520.166 329.63 517.822 327.898 519.887C324.77 520.779 324.77 520.779 323.373 519.607Z" fill="#231F20"/>
<path fill-rule="evenodd" clip-rule="evenodd" d="M498.09 356.716C501.553 352.588 502.95 353.759 507.474 354.038C508.871 355.21 508.536 358.446 505.073 362.574C503.676 361.402 503.676 361.402 503.676 361.402C502.28 360.231 504.011 358.166 504.011 358.166C499.487 357.887 497.755 359.951 498.09 356.716Z" fill="#231F20"/>
<path fill-rule="evenodd" clip-rule="evenodd" d="M531.379 328.376C529.982 327.205 533.111 326.312 531.379 328.376C532.776 329.548 531.379 328.376 531.379 328.376Z" fill="#E5E5E5" fill-opacity="0.9"/>
<path fill-rule="evenodd" clip-rule="evenodd" d="M557.801 322.409C563.331 312.981 574.446 308.239 578.636 311.754C576.905 313.818 578.301 314.99 578.301 314.99C572.772 324.417 563.723 323.859 557.801 322.409Z" fill="#E5E5E5" fill-opacity="0.9"/>
<path fill-rule="evenodd" clip-rule="evenodd" d="M256.965 618.628C257.3 615.392 265.288 611.543 268.081 613.886C264.618 618.014 261.825 615.671 256.965 618.628Z" fill="#231F20"/>
<path fill-rule="evenodd" clip-rule="evenodd" d="M99.0096 795.579C97.6126 794.407 102.472 791.451 102.138 794.686C102.138 794.686 100.741 793.515 99.0096 795.579Z" fill="#231F20"/>
<path fill-rule="evenodd" clip-rule="evenodd" d="M529.876 386.896C531.607 384.832 533.004 386.004 534.4 387.175C532.669 389.239 531.272 388.068 529.876 386.896Z" fill="#E5E5E5" fill-opacity="0.9"/>
<path fill-rule="evenodd" clip-rule="evenodd" d="M170.784 732.709C172.515 730.645 173.912 731.817 173.912 731.817C177.04 730.924 170.449 735.945 170.784 732.709Z" fill="#231F20"/>
<path fill-rule="evenodd" clip-rule="evenodd" d="M519.545 413.396C517.479 418.695 513.289 415.181 519.545 413.396V413.396Z" fill="#E5E5E5" fill-opacity="0.9"/>
<path fill-rule="evenodd" clip-rule="evenodd" d="M535.519 405.697C538.647 404.804 542.11 400.676 543.172 405.083C539.709 409.211 538.312 408.04 535.519 405.697Z" fill="#E5E5E5" fill-opacity="0.9"/>
<path fill-rule="evenodd" clip-rule="evenodd" d="M511.614 431.358C516.808 425.166 519.601 427.509 524.461 424.552C527.254 426.896 530.047 429.239 534.907 426.282C537.7 428.625 537.7 428.625 537.365 431.861C533.902 435.989 534.237 432.753 532.505 434.817C525.579 443.074 522.786 440.731 516.53 442.516C513.737 440.172 514.072 436.937 510.944 437.829C509.547 436.658 515.803 434.873 511.614 431.358Z" fill="#E5E5E5" fill-opacity="0.9"/>
<path fill-rule="evenodd" clip-rule="evenodd" d="M388.23 552.914C391.693 548.786 394.821 547.893 397.614 550.236C394.151 554.364 387.895 556.15 388.23 552.914Z" fill="#231F20"/>
<path fill-rule="evenodd" clip-rule="evenodd" d="M616.008 346.621C619.136 345.729 622.264 344.836 622.599 341.6C621.203 340.429 619.806 339.257 618.409 338.086C613.55 341.042 613.215 344.278 616.008 346.621ZM615.616 335.743C620.476 332.786 626.062 337.472 623.996 342.772C618.801 348.964 614.277 348.685 611.483 346.342C614.946 342.214 611.483 346.342 611.818 343.106C613.55 341.042 615.281 338.978 615.616 335.743Z" fill="#E5E5E5" fill-opacity="0.9"/>
<path fill-rule="evenodd" clip-rule="evenodd" d="M486.703 466.726C483.24 470.854 481.843 469.682 478.715 470.575C475.922 468.232 485.641 462.319 486.703 466.726Z" fill="#231F20"/>
<path fill-rule="evenodd" clip-rule="evenodd" d="M583.389 368.489C586.517 367.597 586.517 367.597 587.913 368.768C586.182 370.832 583.054 371.725 583.389 368.489Z" fill="#E5E5E5" fill-opacity="0.9"/>
<path fill-rule="evenodd" clip-rule="evenodd" d="M507.147 445.194C508.878 443.129 510.275 444.301 512.006 442.237C513.403 443.408 513.403 443.408 514.799 444.58C511.336 448.708 508.208 449.601 507.147 445.194Z" fill="#E5E5E5" fill-opacity="0.9"/>
<path fill-rule="evenodd" clip-rule="evenodd" d="M153.64 795.692C152.243 794.52 155.372 793.628 153.64 795.692C155.372 793.628 153.64 795.692 153.64 795.692Z" fill="#231F20"/>
<path fill-rule="evenodd" clip-rule="evenodd" d="M586.238 384.946C589.701 380.818 592.494 383.161 592.159 386.396C588.697 390.524 587.635 386.117 586.238 384.946Z" fill="#E5E5E5" fill-opacity="0.9"/>
<path fill-rule="evenodd" clip-rule="evenodd" d="M619.193 359.842C622.656 355.715 623.718 360.122 625.114 361.293C621.986 362.186 620.59 361.014 619.193 359.842Z" fill="#E5E5E5" fill-opacity="0.9"/>
<path fill-rule="evenodd" clip-rule="evenodd" d="M377.955 593.526C378.29 590.291 384.546 588.506 385.943 589.677C383.876 594.977 377.955 593.526 377.955 593.526Z" fill="#231F20"/>
<path fill-rule="evenodd" clip-rule="evenodd" d="M601.879 380.483C603.275 381.655 603.275 381.655 604.672 382.826C601.209 386.955 601.209 386.955 598.081 387.847C596.684 386.675 596.684 386.675 595.288 385.504C597.019 383.44 601.879 380.483 601.879 380.483Z" fill="#E5E5E5" fill-opacity="0.9"/>
<path fill-rule="evenodd" clip-rule="evenodd" d="M580.432 411.724C580.097 414.959 574.176 413.509 580.432 411.724V411.724Z" fill="#E5E5E5" fill-opacity="0.9"/>
<path fill-rule="evenodd" clip-rule="evenodd" d="M395.326 587C397.058 584.935 396.723 588.171 395.326 587V587Z" fill="#231F20"/>
<path fill-rule="evenodd" clip-rule="evenodd" d="M617.184 379.256C614.056 380.149 615.788 378.085 617.184 379.256C615.788 378.085 617.184 379.256 617.184 379.256Z" fill="#E5E5E5" fill-opacity="0.9"/>
<path fill-rule="evenodd" clip-rule="evenodd" d="M637.292 360.958C638.688 362.13 636.957 364.194 638.353 365.366C636.622 367.43 635.56 363.022 633.829 365.087C632.432 363.915 635.895 359.787 637.292 360.958Z" fill="#E5E5E5" fill-opacity="0.9"/>
<path fill-rule="evenodd" clip-rule="evenodd" d="M504.916 496.071C503.185 498.135 501.788 496.963 500.057 499.027C497.599 493.449 505.586 489.6 504.916 496.071Z" fill="#E5E5E5" fill-opacity="0.9"/>
<path fill-rule="evenodd" clip-rule="evenodd" d="M671.644 337.027C671.644 337.027 671.979 333.792 671.644 337.027C673.375 334.963 673.375 334.963 671.644 337.027Z" fill="#E5E5E5" fill-opacity="0.9"/>
<path fill-rule="evenodd" clip-rule="evenodd" d="M506.647 494.006C506.647 494.006 508.379 491.942 506.647 494.006C509.775 493.114 508.044 495.178 506.647 494.006Z" fill="#E5E5E5" fill-opacity="0.9"/>
<path fill-rule="evenodd" clip-rule="evenodd" d="M627.965 377.75C629.696 375.686 631.428 373.622 632.824 374.794C635.617 377.137 630.758 380.093 627.965 377.75Z" fill="#E5E5E5" fill-opacity="0.9"/>
<path fill-rule="evenodd" clip-rule="evenodd" d="M206.482 783.754C205.086 782.583 206.817 780.519 206.482 783.754C208.214 781.69 206.482 783.754 206.482 783.754Z" fill="#231F20"/>
<path fill-rule="evenodd" clip-rule="evenodd" d="M585.012 426.116C585.012 426.116 583.615 424.945 585.012 426.116C586.744 424.052 585.012 426.116 585.012 426.116Z" fill="#E5E5E5" fill-opacity="0.9"/>
<path fill-rule="evenodd" clip-rule="evenodd" d="M648.129 373.566C649.861 371.502 649.861 371.502 651.592 369.438C652.989 370.61 652.654 373.845 650.923 375.909C649.526 374.738 649.526 374.738 648.129 373.566Z" fill="#E5E5E5" fill-opacity="0.9"/>
<path fill-rule="evenodd" clip-rule="evenodd" d="M544.518 480.06C551.444 471.804 557.366 473.255 558.427 477.662C551.836 482.683 548.708 483.575 544.518 480.06Z" fill="#E5E5E5" fill-opacity="0.9"/>
<path fill-rule="evenodd" clip-rule="evenodd" d="M515.084 515.15C513.687 513.978 516.815 513.085 518.547 511.021C519.943 512.193 519.943 512.193 521.34 513.364C518.212 514.257 516.815 513.085 515.084 515.15Z" fill="#E5E5E5" fill-opacity="0.9"/>
<path fill-rule="evenodd" clip-rule="evenodd" d="M532.063 497.744C533.795 495.68 536.923 494.788 536.588 498.023C536.588 498.023 533.46 498.916 532.063 497.744Z" fill="#E5E5E5" fill-opacity="0.9"/>
<path fill-rule="evenodd" clip-rule="evenodd" d="M546.699 502.989C548.096 504.16 546.364 506.224 542.901 510.353C542.566 513.588 544.298 511.524 547.091 513.867C540.165 522.123 536.31 515.373 530.054 517.158C527.261 514.815 524.468 512.472 521.34 513.365C524.076 501.594 544.241 497.41 546.699 502.989Z" fill="#E5E5E5" fill-opacity="0.9"/>
<path fill-rule="evenodd" clip-rule="evenodd" d="M635.396 408.6C640.255 405.644 651.371 400.902 648.97 409.438C642.714 411.223 638.189 410.944 635.396 408.6Z" fill="#E5E5E5" fill-opacity="0.9"/>
<path fill-rule="evenodd" clip-rule="evenodd" d="M517.207 523.964C518.939 521.9 522.067 521.007 521.732 524.243C520.001 526.307 518.604 525.136 517.207 523.964Z" fill="#E5E5E5" fill-opacity="0.9"/>
<path fill-rule="evenodd" clip-rule="evenodd" d="M574.068 473.2C574.403 469.964 582.391 466.115 580.324 471.415C575.465 474.371 575.8 471.136 574.068 473.2Z" fill="#E5E5E5" fill-opacity="0.9"/>
<path fill-rule="evenodd" clip-rule="evenodd" d="M664.554 390.861C664.889 387.625 666.286 388.797 664.554 390.861C667.682 389.968 664.554 390.861 664.554 390.861Z" fill="#E5E5E5" fill-opacity="0.9"/>
<path fill-rule="evenodd" clip-rule="evenodd" d="M454.147 590.627C452.75 589.455 457.61 586.499 459.341 584.435C458.671 590.906 455.543 591.799 454.147 590.627Z" fill="#231F20"/>
<path fill-rule="evenodd" clip-rule="evenodd" d="M500.619 552.247C499.222 551.076 499.222 551.076 500.619 552.247C500.954 549.011 500.619 552.247 500.619 552.247Z" fill="#E5E5E5" fill-opacity="0.9"/>
<path fill-rule="evenodd" clip-rule="evenodd" d="M662.487 396.16C661.09 394.989 664.218 394.096 665.95 392.032C667.346 393.204 665.615 395.268 662.487 396.16Z" fill="#E5E5E5" fill-opacity="0.9"/>
<path fill-rule="evenodd" clip-rule="evenodd" d="M626.796 433.035C625.4 431.863 626.796 433.035 628.528 430.971C629.925 432.142 628.193 434.206 626.796 433.035Z" fill="#E5E5E5" fill-opacity="0.9"/>
<path fill-rule="evenodd" clip-rule="evenodd" d="M520.392 537.186C518.996 536.014 520.727 533.95 520.392 537.186C520.727 533.95 520.392 537.186 520.392 537.186Z" fill="#E5E5E5" fill-opacity="0.9"/>
<path fill-rule="evenodd" clip-rule="evenodd" d="M498.553 557.547C496.822 559.611 497.883 564.019 494.42 568.147C493.359 563.739 495.09 561.675 498.553 557.547Z" fill="#E5E5E5" fill-opacity="0.9"/>
<path fill-rule="evenodd" clip-rule="evenodd" d="M638.246 425.057C638.246 425.057 641.375 424.165 643.106 422.101C644.503 423.272 647.631 422.38 650.424 424.723C653.887 420.595 653.552 423.83 655.283 421.766C657.015 419.702 658.411 420.874 659.808 422.045C662.601 424.388 656.01 429.409 657.072 433.816C652.547 433.537 644.894 434.15 645.564 427.679C644.503 423.272 639.308 429.464 638.246 425.057Z" fill="#E5E5E5" fill-opacity="0.9"/>
<path fill-rule="evenodd" clip-rule="evenodd" d="M632.717 434.485C631.321 433.314 631.321 433.314 632.717 434.485C633.052 431.25 632.717 434.485 632.717 434.485Z" fill="#E5E5E5" fill-opacity="0.9"/>
<path fill-rule="evenodd" clip-rule="evenodd" d="M508.272 551.634C510.003 549.57 511.4 550.741 512.796 551.913C512.796 551.913 511.4 550.741 509.668 552.805L508.272 551.634Z" fill="#E5E5E5" fill-opacity="0.9"/>
<path fill-rule="evenodd" clip-rule="evenodd" d="M580.047 488.764C581.443 489.936 584.906 485.808 588.369 481.68C589.766 482.851 592.894 481.959 592.559 485.194C590.492 490.494 582.84 491.107 580.047 488.764Z" fill="#E5E5E5" fill-opacity="0.9"/>
<path fill-rule="evenodd" clip-rule="evenodd" d="M660.812 412.338C662.543 410.274 663.94 411.446 665.336 412.617C662.208 413.51 662.209 413.51 660.812 412.338Z" fill="#E5E5E5" fill-opacity="0.9"/>
<path fill-rule="evenodd" clip-rule="evenodd" d="M532.57 536.851C534.636 531.552 543.686 532.11 543.351 535.345C539.888 539.473 537.095 537.13 533.632 541.258C533.632 541.258 535.698 535.959 532.57 536.851Z" fill="#E5E5E5" fill-opacity="0.9"/>
<path fill-rule="evenodd" clip-rule="evenodd" d="M640.035 437.108C638.639 435.936 638.639 435.936 640.035 437.108C641.767 435.043 640.035 437.108 640.035 437.108Z" fill="#E5E5E5" fill-opacity="0.9"/>
<path fill-rule="evenodd" clip-rule="evenodd" d="M434.489 633.918C434.824 630.682 439.348 630.961 440.745 632.133C437.282 636.261 436.22 631.854 434.489 633.918Z" fill="#231F20"/>
<path fill-rule="evenodd" clip-rule="evenodd" d="M644.895 434.151C649.085 437.666 640.762 444.751 637.969 442.407C642.829 439.451 638.639 435.936 644.895 434.151Z" fill="#E5E5E5" fill-opacity="0.9"/>
<path fill-rule="evenodd" clip-rule="evenodd" d="M663.271 417.917C660.143 418.809 661.874 416.745 663.271 417.917V417.917Z" fill="#E5E5E5" fill-opacity="0.9"/>
<path fill-rule="evenodd" clip-rule="evenodd" d="M622.72 457.748C625.848 456.855 630.708 453.899 633.836 453.006C633.166 459.477 636.294 458.585 637.356 462.992C632.496 465.949 629.368 466.841 624.844 466.562C621.715 467.454 618.253 471.583 613.728 471.304C617.191 467.175 620.319 466.283 623.782 462.155C627.245 458.027 622.385 460.983 622.72 457.748Z" fill="#E5E5E5" fill-opacity="0.9"/>
<path fill-rule="evenodd" clip-rule="evenodd" d="M559.995 521.176C558.599 520.004 558.599 520.004 559.995 521.176C561.727 519.112 559.995 521.176 559.995 521.176Z" fill="#E5E5E5" fill-opacity="0.9"/>
<path fill-rule="evenodd" clip-rule="evenodd" d="M405.054 669.007C405.388 665.771 406.785 666.943 405.054 669.007C408.182 668.114 406.45 670.178 405.054 669.007Z" fill="#231F20"/>
<path fill-rule="evenodd" clip-rule="evenodd" d="M610.992 483.075C614.12 482.182 615.517 483.354 618.98 479.226C620.376 480.397 620.376 480.397 620.376 480.397C621.773 481.569 616.913 484.525 617.975 488.932C613.115 491.889 612.389 484.246 610.992 483.075Z" fill="#E5E5E5" fill-opacity="0.9"/>
<path fill-rule="evenodd" clip-rule="evenodd" d="M615.851 480.118C615.851 480.118 614.455 478.947 615.851 480.118C617.583 478.054 615.851 480.118 615.851 480.118Z" fill="#E5E5E5" fill-opacity="0.9"/>
<path fill-rule="evenodd" clip-rule="evenodd" d="M656.402 440.288C662.993 435.267 668.579 439.953 673.439 436.997C673.104 440.232 672.769 443.468 669.641 444.361C666.513 445.253 665.451 440.846 662.323 441.738C660.591 443.803 666.514 445.253 661.654 448.21C659.196 442.631 657.463 444.695 652.939 444.416C656.067 443.523 657.798 441.459 656.402 440.288Z" fill="#E5E5E5" fill-opacity="0.9"/>
<path fill-rule="evenodd" clip-rule="evenodd" d="M642.886 453.565C646.349 449.437 646.014 452.672 647.745 450.608C647.41 453.844 647.075 457.079 643.947 457.972C645.679 455.908 644.282 454.736 642.886 453.565Z" fill="#E5E5E5" fill-opacity="0.9"/>
<path fill-rule="evenodd" clip-rule="evenodd" d="M533.019 561.844C536.147 560.951 536.147 560.951 539.275 560.058C538.94 563.294 534.415 563.015 533.019 561.844Z" fill="#E5E5E5" fill-opacity="0.9"/>
<path fill-rule="evenodd" clip-rule="evenodd" d="M624.9 480.676C628.028 479.784 633.222 473.592 635.681 479.17C633.949 481.234 627.693 483.019 624.9 480.676Z" fill="#E5E5E5" fill-opacity="0.9"/>
<path fill-rule="evenodd" clip-rule="evenodd" d="M520.228 582.763C518.832 581.591 520.563 579.527 520.228 582.763C520.563 579.527 520.228 582.763 520.228 582.763Z" fill="#E5E5E5" fill-opacity="0.9"/>
<path fill-rule="evenodd" clip-rule="evenodd" d="M525.089 579.807C525.089 579.807 523.692 578.636 525.089 579.807C526.82 577.743 525.089 579.807 525.089 579.807Z" fill="#E5E5E5" fill-opacity="0.9"/>
<path fill-rule="evenodd" clip-rule="evenodd" d="M529.947 576.85C528.55 575.678 528.55 575.678 529.947 576.85C531.679 574.785 529.947 576.85 529.947 576.85Z" fill="#E5E5E5" fill-opacity="0.9"/>
<path fill-rule="evenodd" clip-rule="evenodd" d="M635.681 479.17C636.016 475.934 639.479 471.806 642.607 470.914C646.07 466.785 644.673 465.614 651.264 460.593C654.392 459.701 657.521 458.808 658.917 459.98C659.252 456.744 664.112 453.788 667.24 452.895C672.099 449.938 666.178 448.488 671.037 445.531C672.434 446.703 674.166 444.639 674.166 444.639C675.562 445.81 672.099 449.939 672.099 449.939C673.161 454.346 676.624 450.218 677.685 454.625C677.351 457.86 672.491 460.817 667.632 463.774C666.57 459.366 663.107 463.494 663.442 460.259C659.979 464.387 655.119 467.344 657.912 469.687C660.706 472.03 665.9 465.838 668.693 468.181C668.358 471.416 666.627 473.48 667.689 477.888C662.829 480.844 664.895 475.544 663.499 474.373C659.701 481.737 656.908 479.393 652.048 482.35C643.334 478.556 640.206 479.449 635.681 479.17Z" fill="#E5E5E5" fill-opacity="0.9"/>
<path fill-rule="evenodd" clip-rule="evenodd" d="M534.471 577.129C532.405 582.428 529.612 580.085 526.484 580.978C525.087 579.806 531.678 574.785 534.471 577.129Z" fill="#E5E5E5" fill-opacity="0.9"/>
<path fill-rule="evenodd" clip-rule="evenodd" d="M361.488 737.957C363.22 735.893 364.616 737.065 366.013 738.237C362.885 739.129 361.153 741.193 361.488 737.957Z" fill="#231F20"/>
<path fill-rule="evenodd" clip-rule="evenodd" d="M602.057 510.744C603.788 508.68 606.916 507.788 608.313 508.959C607.978 512.195 604.85 513.088 602.057 510.744Z" fill="#E5E5E5" fill-opacity="0.9"/>
<path fill-rule="evenodd" clip-rule="evenodd" d="M616.636 501.875C621.83 495.683 626.69 492.726 629.483 495.07C630.544 499.477 630.21 502.712 626.747 506.84C629.205 512.419 632.668 508.291 635.461 510.634C633.395 515.934 630.601 513.591 627.138 517.719C624.345 515.376 621.552 513.033 618.424 513.925C619.094 507.454 622.557 503.326 616.636 501.875Z" fill="#E5E5E5" fill-opacity="0.9"/>
<path fill-rule="evenodd" clip-rule="evenodd" d="M644.061 486.2C642.665 485.028 640.933 487.093 642.33 488.264C644.061 486.2 645.458 487.372 644.061 486.2ZM650.318 484.415C648.586 486.479 647.19 485.307 645.458 487.372C642.665 485.028 639.202 489.157 637.805 487.985C637.805 487.985 642.665 485.028 641.268 483.857C643 481.793 647.859 478.836 650.318 484.415Z" fill="#E5E5E5" fill-opacity="0.9"/>
<path fill-rule="evenodd" clip-rule="evenodd" d="M600.383 526.923C598.986 525.751 603.846 522.795 603.511 526.03C601.779 528.094 602.114 524.859 600.383 526.923Z" fill="#E5E5E5" fill-opacity="0.9"/>
<path fill-rule="evenodd" clip-rule="evenodd" d="M416.005 709.842C415.67 713.078 409.414 714.863 416.005 709.842V709.842Z" fill="#231F20"/>
<path fill-rule="evenodd" clip-rule="evenodd" d="M417.402 711.014C416.005 709.843 419.133 708.95 419.133 708.95C420.53 710.122 419.133 708.95 417.402 711.014Z" fill="#231F20"/>
<path fill-rule="evenodd" clip-rule="evenodd" d="M523.47 610.098C525.536 604.798 531.457 606.249 533.189 604.185C531.122 609.485 525.201 608.034 523.47 610.098Z" fill="#E5E5E5" fill-opacity="0.9"/>
<path fill-rule="evenodd" clip-rule="evenodd" d="M643.057 495.907C641.661 494.735 644.789 493.843 644.789 493.843C644.454 497.078 643.057 495.907 643.057 495.907Z" fill="#E5E5E5" fill-opacity="0.9"/>
<path fill-rule="evenodd" clip-rule="evenodd" d="M588.654 552.25C587.257 551.078 588.654 552.25 588.654 552.25C590.385 550.186 588.654 552.25 588.654 552.25Z" fill="#E5E5E5" fill-opacity="0.9"/>
<path fill-rule="evenodd" clip-rule="evenodd" d="M664.225 482.016C663.89 485.251 663.89 485.251 663.555 488.487C666.348 490.83 665.621 483.187 666.683 487.594C669.476 489.938 663.22 491.723 661.488 493.787C660.092 492.615 658.36 494.679 655.232 495.572C655.902 489.1 659.7 481.737 664.225 482.016Z" fill="#E5E5E5" fill-opacity="0.9"/>
<path fill-rule="evenodd" clip-rule="evenodd" d="M617.085 526.868C621.944 523.911 628.201 522.126 630.994 524.469C630.659 527.705 624.403 529.49 621.61 527.147C618.147 531.275 618.482 528.039 616.75 530.103C616.75 530.103 618.481 528.039 617.085 526.868Z" fill="#E5E5E5" fill-opacity="0.9"/>
<path fill-rule="evenodd" clip-rule="evenodd" d="M601.501 545.444C604.964 541.316 604.63 544.552 607.758 543.659C609.489 541.595 614.349 538.639 615.745 539.81C618.538 542.153 613.679 545.11 610.216 549.238C609.489 541.595 604.295 547.787 601.501 545.444Z" fill="#E5E5E5" fill-opacity="0.9"/>
<path fill-rule="evenodd" clip-rule="evenodd" d="M680.536 471.082C683.329 473.426 680.201 474.318 676.738 478.446C675.677 474.039 677.408 471.975 680.536 471.082Z" fill="#E5E5E5" fill-opacity="0.9"/>
<path fill-rule="evenodd" clip-rule="evenodd" d="M633.059 519.169C636.187 518.276 639.315 517.384 640.377 521.791C636.914 525.919 634.456 520.34 633.059 519.169Z" fill="#E5E5E5" fill-opacity="0.9"/>
<path fill-rule="evenodd" clip-rule="evenodd" d="M565.474 585.553C567.206 583.489 571.73 583.768 574.858 582.875C576.255 584.047 569.664 589.068 566.536 589.96C565.139 588.789 566.871 586.725 565.474 585.553Z" fill="#E5E5E5" fill-opacity="0.9"/>
<path fill-rule="evenodd" clip-rule="evenodd" d="M573.463 581.705C578.322 578.748 582.12 571.384 585.975 578.135C584.244 580.199 582.847 579.027 581.45 577.856C579.719 579.92 576.256 584.048 573.463 581.705Z" fill="#E5E5E5" fill-opacity="0.9"/>
<path fill-rule="evenodd" clip-rule="evenodd" d="M443.488 708.281C442.091 707.11 443.488 708.281 445.219 706.217L443.488 708.281Z" fill="#E5E5E5"/>
<path fill-rule="evenodd" clip-rule="evenodd" d="M672.27 492.28C672.605 489.045 677.129 489.324 678.861 487.26C680.258 488.431 675.398 491.388 676.795 492.56C675.063 494.624 674.001 490.216 672.27 492.28Z" fill="#E5E5E5" fill-opacity="0.9"/>
<path fill-rule="evenodd" clip-rule="evenodd" d="M643.171 524.135C643.506 520.899 651.493 517.05 652.555 521.457C647.696 524.414 646.299 523.242 643.171 524.135Z" fill="#E5E5E5" fill-opacity="0.9"/>
<path fill-rule="evenodd" clip-rule="evenodd" d="M629.319 540.647C634.179 537.691 638.703 537.97 639.765 542.377C636.302 546.505 633.174 547.398 630.381 545.054C628.984 543.883 632.112 542.99 629.319 540.647Z" fill="#E5E5E5" fill-opacity="0.9"/>
<path fill-rule="evenodd" clip-rule="evenodd" d="M585.305 584.606C585.64 581.371 590.165 581.65 591.897 579.585C593.293 580.757 588.433 583.714 585.305 584.606Z" fill="#E5E5E5" fill-opacity="0.9"/>
<path fill-rule="evenodd" clip-rule="evenodd" d="M643.896 531.777C645.627 529.713 647.024 530.884 648.421 532.056C648.421 532.056 647.024 530.884 645.293 532.949C645.293 532.949 645.293 532.949 643.896 531.777Z" fill="#E5E5E5" fill-opacity="0.9"/>
<path fill-rule="evenodd" clip-rule="evenodd" d="M520.513 653.333L522.244 651.269C522.244 651.269 519.116 652.161 520.513 653.333Z" fill="#E5E5E5" fill-opacity="0.9"/>
<path fill-rule="evenodd" clip-rule="evenodd" d="M623.455 553.31C623.455 553.31 625.186 551.246 623.455 553.31C625.186 551.246 624.851 554.482 623.455 553.31Z" fill="#E5E5E5" fill-opacity="0.9"/>
<path fill-rule="evenodd" clip-rule="evenodd" d="M643.562 535.012C641.831 537.077 642.166 533.841 643.562 535.012V535.012Z" fill="#E5E5E5" fill-opacity="0.9"/>
<path fill-rule="evenodd" clip-rule="evenodd" d="M665.402 514.651C665.402 514.651 667.133 512.588 665.402 514.651C667.133 512.588 666.798 515.823 665.402 514.651Z" fill="#E5E5E5" fill-opacity="0.9"/>
<path fill-rule="evenodd" clip-rule="evenodd" d="M624.851 554.482L626.582 552.418L627.979 553.589L626.247 555.653L624.851 554.482Z" fill="#E5E5E5" fill-opacity="0.9"/>
<path fill-rule="evenodd" clip-rule="evenodd" d="M554.53 632.637C556.262 630.573 559.725 626.445 560.787 630.852C559.055 632.916 555.927 633.809 554.53 632.637Z" fill="#E5E5E5" fill-opacity="0.9"/>
<path fill-rule="evenodd" clip-rule="evenodd" d="M586.423 603.126C588.155 601.062 588.155 601.062 589.886 598.998L591.283 600.17C589.551 602.234 589.551 602.234 587.82 604.298C586.423 603.126 586.423 603.126 586.423 603.126Z" fill="#E5E5E5" fill-opacity="0.9"/>
<path fill-rule="evenodd" clip-rule="evenodd" d="M552.129 641.172C555.257 640.28 555.257 640.28 556.653 641.451C556.653 641.451 553.525 642.344 552.129 641.172Z" fill="#E5E5E5" fill-opacity="0.9"/>
<path fill-rule="evenodd" clip-rule="evenodd" d="M640.214 567.369C641.61 568.541 639.879 570.605 641.275 571.776C636.416 574.733 633.622 572.39 629.098 572.111C631.164 566.811 635.354 570.326 640.214 567.369Z" fill="#E5E5E5" fill-opacity="0.9"/>
<path fill-rule="evenodd" clip-rule="evenodd" d="M602.456 609.542C604.187 607.478 605.584 608.65 606.98 609.821C606.98 609.821 605.584 608.65 603.852 610.714C603.852 610.714 603.852 610.714 602.456 609.542Z" fill="#E5E5E5" fill-opacity="0.9"/>
<path fill-rule="evenodd" clip-rule="evenodd" d="M632.618 582.097C634.35 580.032 638.874 580.311 637.143 582.376C636.808 585.611 634.015 583.268 632.618 582.097Z" fill="#E5E5E5" fill-opacity="0.9"/>
<path fill-rule="evenodd" clip-rule="evenodd" d="M556.041 662.037C557.772 659.973 559.169 661.144 559.169 661.144C562.297 660.252 555.706 665.272 556.041 662.037Z" fill="#E5E5E5" fill-opacity="0.9"/>
<path fill-rule="evenodd" clip-rule="evenodd" d="M588.661 640.169L590.393 638.105C592.124 636.041 592.124 636.041 593.856 633.977C595.252 635.149 588.996 636.934 588.661 640.169Z" fill="#E5E5E5" fill-opacity="0.9"/>
<path fill-rule="evenodd" clip-rule="evenodd" d="M408.416 812.489C411.879 808.361 415.007 807.469 414.672 810.704C411.209 814.832 409.478 816.896 408.416 812.489Z" fill="#231F20"/>
<path fill-rule="evenodd" clip-rule="evenodd" d="M653.845 582.321L655.242 583.492C653.51 585.556 652.114 584.385 652.114 584.385C652.114 584.385 654.18 579.085 653.845 582.321Z" fill="#E5E5E5" fill-opacity="0.9"/>
<path fill-rule="evenodd" clip-rule="evenodd" d="M453.156 776.173C455.95 778.516 452.822 779.409 451.09 781.473C448.297 779.13 448.297 779.13 453.156 776.173Z" fill="#E5E5E5"/>
<path fill-rule="evenodd" clip-rule="evenodd" d="M594.583 641.62L596.314 639.556L597.711 640.727L595.979 642.791C594.583 641.62 594.583 641.62 594.583 641.62Z" fill="#E5E5E5" fill-opacity="0.9"/>
<path fill-rule="evenodd" clip-rule="evenodd" d="M636.864 599.724C636.864 599.724 638.596 597.66 640.327 595.596L641.724 596.768L639.992 598.832C638.261 600.896 638.261 600.896 636.864 599.724Z" fill="#E5E5E5" fill-opacity="0.9"/>
<path fill-rule="evenodd" clip-rule="evenodd" d="M629.605 611.217C628.208 610.046 629.605 611.217 631.336 609.153C629.605 611.217 629.605 611.217 629.605 611.217Z" fill="#E5E5E5" fill-opacity="0.9"/>
<path fill-rule="evenodd" clip-rule="evenodd" d="M663.955 587.285C660.492 591.413 660.157 594.649 655.298 597.605C652.17 598.498 647.645 598.219 646.583 593.812C648.65 588.512 659.765 583.771 663.955 587.285Z" fill="#E5E5E5" fill-opacity="0.9"/>
<path fill-rule="evenodd" clip-rule="evenodd" d="M636.195 606.196C641.389 600.004 644.182 602.347 645.244 606.755C640.05 612.947 637.257 610.604 636.195 606.196Z" fill="#E5E5E5" fill-opacity="0.9"/>
<path fill-rule="evenodd" clip-rule="evenodd" d="M585.59 655.176C589.053 651.047 592.181 650.155 595.309 649.263C596.371 653.67 586.652 659.583 585.59 655.176Z" fill="#E5E5E5" fill-opacity="0.9"/>
<path fill-rule="evenodd" clip-rule="evenodd" d="M541.242 702.37C541.242 702.37 542.973 700.306 541.242 702.37C544.37 701.478 544.37 701.478 544.37 701.478L542.639 703.542L541.242 702.37Z" fill="#E5E5E5" fill-opacity="0.9"/>
<path fill-rule="evenodd" clip-rule="evenodd" d="M535.713 711.798C534.316 710.626 535.713 711.798 535.713 711.798C537.444 709.734 535.713 711.798 535.713 711.798Z" fill="#E5E5E5" fill-opacity="0.9"/>
<path fill-rule="evenodd" clip-rule="evenodd" d="M523.257 729.482C522.922 732.717 518.732 729.202 523.257 729.482V729.482Z" fill="#E5E5E5" fill-opacity="0.9"/>
<path fill-rule="evenodd" clip-rule="evenodd" d="M604.023 653.056C602.627 651.884 607.486 648.928 607.151 652.164C607.151 652.164 607.151 652.164 604.023 653.056Z" fill="#E5E5E5" fill-opacity="0.9"/>
<path fill-rule="evenodd" clip-rule="evenodd" d="M588.44 671.632C588.44 671.632 590.171 669.568 588.44 671.632C591.568 670.74 591.568 670.74 591.568 670.74L589.836 672.804L588.44 671.632Z" fill="#E5E5E5" fill-opacity="0.9"/>
<path fill-rule="evenodd" clip-rule="evenodd" d="M655.691 608.484C658.484 610.828 651.893 615.848 648.765 616.741C650.496 614.677 650.831 611.441 655.691 608.484Z" fill="#E5E5E5" fill-opacity="0.9"/>
<path fill-rule="evenodd" clip-rule="evenodd" d="M476.842 781.976C475.445 780.805 480.305 777.848 480.305 777.848C481.367 782.255 476.842 781.976 476.842 781.976Z" fill="#E5E5E5" fill-opacity="0.9"/>
<path fill-rule="evenodd" clip-rule="evenodd" d="M566.266 695.23C567.997 693.166 569.394 694.337 570.79 695.509C569.059 697.573 569.059 697.573 566.266 695.23Z" fill="#E5E5E5" fill-opacity="0.9"/>
<path fill-rule="evenodd" clip-rule="evenodd" d="M643.235 626.168C643.235 626.168 644.966 624.104 643.235 626.168C644.966 624.104 644.631 627.34 643.235 626.168Z" fill="#E5E5E5" fill-opacity="0.9"/>
<path fill-rule="evenodd" clip-rule="evenodd" d="M667.532 611.386C666.135 610.214 667.532 611.386 669.263 609.321L667.532 611.386Z" fill="#E5E5E5" fill-opacity="0.9"/>
<path fill-rule="evenodd" clip-rule="evenodd" d="M625.25 653.28L626.981 651.216C628.378 652.387 625.25 653.28 625.25 653.28Z" fill="#E5E5E5" fill-opacity="0.9"/>
<path fill-rule="evenodd" clip-rule="evenodd" d="M584.7 693.111C586.431 691.047 587.828 692.218 584.7 693.111C589.225 693.39 584.365 696.347 584.7 693.111Z" fill="#E5E5E5" fill-opacity="0.9"/>
<path fill-rule="evenodd" clip-rule="evenodd" d="M642.287 649.989C641.952 653.225 633.965 657.074 632.568 655.902C631.841 648.259 639.159 650.882 642.287 649.989Z" fill="#E5E5E5" fill-opacity="0.9"/>
<path fill-rule="evenodd" clip-rule="evenodd" d="M398.926 874.859C400.657 872.795 402.054 873.966 403.785 871.902C405.182 873.074 399.987 879.266 398.926 874.859Z" fill="#231F20"/>
<path fill-rule="evenodd" clip-rule="evenodd" d="M645.749 645.86C649.212 641.732 652.34 640.84 655.134 643.183C651.671 647.311 648.543 648.203 645.749 645.86Z" fill="#E5E5E5" fill-opacity="0.9"/>
<path fill-rule="evenodd" clip-rule="evenodd" d="M576.099 717.545C579.228 716.653 580.959 714.589 584.087 713.696C584.087 713.696 577.496 718.717 576.099 717.545Z" fill="#E5E5E5" fill-opacity="0.9"/>
<path fill-rule="evenodd" clip-rule="evenodd" d="M760.874 633.423C760.874 633.423 759.143 635.487 760.874 633.423V633.423ZM769.809 605.753C769.809 605.753 768.413 604.582 769.809 605.753C768.078 607.817 771.206 606.925 769.809 605.753ZM763.553 607.538C770.144 602.517 764.223 601.067 761.43 598.724C761.43 598.724 759.698 600.788 757.967 602.852C759.029 607.259 760.76 605.195 763.553 607.538ZM719.148 640.618C717.416 642.683 717.416 642.683 715.685 644.747C717.416 642.683 719.148 640.618 719.148 640.618ZM710.825 647.703L709.094 649.767C710.825 647.703 710.825 647.703 710.825 647.703ZM704.904 646.253C703.172 648.317 700.044 649.209 699.709 652.445C702.838 651.552 706.3 647.424 704.904 646.253ZM704.177 638.61C701.049 639.502 697.921 640.395 694.458 644.523C697.251 646.866 705.574 639.781 704.177 638.61ZM694.793 641.287C696.524 639.223 698.591 633.924 695.463 634.816C698.256 637.159 693.396 640.116 694.793 641.287ZM716.967 617.69C713.839 618.583 712.777 614.175 711.046 616.24C710.711 619.475 718.029 622.097 716.967 617.69ZM696.132 628.345C697.864 626.281 697.864 626.281 699.595 624.217C698.199 623.045 695.071 623.938 695.071 623.938C694.736 627.173 694.736 627.173 696.132 628.345ZM655.525 654.061L657.256 651.997L655.86 650.826L654.128 652.89C655.525 654.061 655.525 654.061 655.525 654.061ZM656.529 644.355C657.926 645.526 656.194 647.59 656.194 647.59C662.116 649.041 661.724 638.162 669.711 634.313C671.108 635.485 669.376 637.549 667.645 639.613C669.042 640.785 670.773 638.721 673.566 641.064C680.492 632.807 686.413 634.258 690.211 626.894C693.004 629.237 698.534 619.81 701.662 618.917C701.662 618.917 700.265 617.746 701.997 615.681C706.856 612.725 705.795 608.318 712.386 603.297C716.91 603.576 716.91 603.576 717.972 607.983C721.1 607.091 727.356 605.306 730.149 607.649C733.277 606.756 732.216 602.349 735.344 601.457C736.405 605.864 739.868 601.736 740.93 606.143C740.595 609.379 740.26 612.614 739.925 615.85C742.719 618.193 742.719 618.193 745.512 620.536C745.847 617.3 744.785 612.893 745.12 609.658C749.979 606.701 753.777 599.337 757.967 602.852C756.235 604.916 754.839 603.744 753.107 605.808C752.772 609.044 752.772 609.044 752.438 612.28L753.834 613.451C755.566 611.387 755.901 608.152 757.632 606.088C761.095 601.959 762.157 606.367 763.888 604.303C769.083 598.11 775.674 593.09 780.198 593.369C781.26 597.776 774.669 602.797 778.859 606.311C777.127 608.375 777.127 608.375 775.731 607.204C772.603 608.096 776.792 611.611 776.792 611.611C775.061 613.675 771.933 614.567 773.329 615.739C774.391 620.146 779.92 610.718 780.982 615.126C774.726 616.911 777.519 619.254 780.312 621.597C775.118 627.789 775.788 621.318 772.325 625.446C768.862 629.574 775.118 627.789 773.051 633.089C771.32 635.153 769.923 633.981 768.527 632.81C769.588 637.217 773.778 640.731 776.571 643.074C773.108 647.203 769.98 648.095 764.786 654.287C763.389 653.116 763.389 653.116 763.389 653.116C763.724 649.88 758.138 645.194 761.601 641.066C760.204 639.894 755.01 646.086 753.613 644.915C750.15 649.043 754.34 652.558 750.877 656.686C752.274 657.857 752.944 651.386 755.737 653.729C757.133 654.901 755.402 656.965 756.798 658.136C753.335 662.264 751.939 661.093 750.542 659.921C747.079 664.049 748.476 665.221 743.616 668.178C742.555 663.77 741.158 662.599 736.968 659.084C738.7 657.02 740.766 651.721 739.37 650.549C732.779 655.57 733.84 659.977 730.377 664.105C723.786 669.126 716.86 677.382 712.336 677.103C710.604 679.167 710.269 682.402 708.538 684.466C709.934 685.638 709.934 685.638 711.331 686.81C708.203 687.702 705.41 685.359 705.745 682.123C704.348 680.952 702.617 683.016 701.22 681.844C697.757 685.972 698.819 690.38 693.959 693.336C696.752 695.679 700.55 688.316 701.947 689.487C704.74 691.83 701.277 695.958 696.418 698.915C692.955 703.043 692.62 706.279 689.157 710.407C685.694 714.535 683.236 708.956 678.041 715.148C676.645 713.977 680.107 709.849 679.046 705.441C684.24 699.249 687.703 695.121 692.898 688.929C688.038 691.886 688.708 685.414 693.567 682.458C690.774 680.115 689.378 678.943 686.584 676.6C688.651 671.3 690.047 672.472 694.572 672.751C693.175 671.579 698.035 668.623 695.242 666.28C696.973 664.216 700.101 663.323 701.833 661.259C702.168 658.023 694.18 661.873 696.973 664.216C693.845 665.108 692.449 663.937 688.986 668.065C685.858 668.957 687.924 663.658 684.796 664.55C685.131 661.314 689.99 658.358 691.722 656.294C693.118 657.465 693.118 657.465 694.515 658.637C696.247 656.573 696.581 653.337 696.581 653.337C690.325 655.122 685.801 654.843 679.21 659.864C677.813 658.692 677.813 658.692 676.416 657.521C674.685 659.585 671.557 660.477 671.222 663.713C669.491 665.777 668.094 664.605 666.697 663.434C664.966 665.498 661.838 666.39 658.71 667.283C657.313 666.111 653.123 662.597 654.855 660.533C653.458 659.361 650.33 660.254 648.599 662.318C645.079 652.332 654.463 649.654 656.529 644.355Z" fill="#E5E5E5" fill-opacity="0.9"/>
<path fill-rule="evenodd" clip-rule="evenodd" d="M430.541 862.698L432.273 860.634C433.669 861.806 430.541 862.698 430.541 862.698Z" fill="#231F20"/>
<path fill-rule="evenodd" clip-rule="evenodd" d="M586.545 719.275C586.545 719.275 588.277 717.21 586.545 719.275C587.942 720.447 586.545 719.275 586.545 719.275Z" fill="#E5E5E5" fill-opacity="0.9"/>
<path fill-rule="evenodd" clip-rule="evenodd" d="M544.263 761.169C542.866 759.998 545.994 759.105 545.994 759.105C544.263 761.169 545.659 762.341 544.263 761.169Z" fill="#E5E5E5" fill-opacity="0.9"/>
<path fill-rule="evenodd" clip-rule="evenodd" d="M614.306 700.364C617.099 702.707 609.111 706.556 607.38 708.62C605.983 707.449 610.843 704.492 614.306 700.364Z" fill="#E5E5E5" fill-opacity="0.9"/>
<path fill-rule="evenodd" clip-rule="evenodd" d="M603.917 712.748C602.521 711.577 605.649 710.684 605.649 710.684C603.917 712.748 603.917 712.748 603.917 712.748Z" fill="#E5E5E5" fill-opacity="0.9"/>
<path fill-rule="evenodd" clip-rule="evenodd" d="M638.603 685.58C633.408 691.772 630.615 689.429 624.024 694.45C622.962 690.043 636.144 680.001 638.603 685.58Z" fill="#E5E5E5" fill-opacity="0.9"/>
<path fill-rule="evenodd" clip-rule="evenodd" d="M345.364 967.073C351.62 965.283 342.962 975.613 345.364 967.073V967.073Z" fill="#231F20"/>
<path fill-rule="evenodd" clip-rule="evenodd" d="M559.96 770.821C562.753 773.164 557.894 776.12 556.162 778.184C554.431 780.248 553.034 779.077 554.766 777.013C556.497 774.949 555.101 773.777 559.96 770.821Z" fill="#E5E5E5" fill-opacity="0.9"/>
<path fill-rule="evenodd" clip-rule="evenodd" d="M667.426 671.077C667.761 667.842 667.761 667.842 667.426 671.077C669.158 669.013 667.426 671.077 667.426 671.077Z" fill="#E5E5E5" fill-opacity="0.9"/>
<path fill-rule="evenodd" clip-rule="evenodd" d="M562.753 773.163L564.484 771.099C564.484 771.099 563.087 769.928 562.753 773.163Z" fill="#E5E5E5" fill-opacity="0.9"/>
<path fill-rule="evenodd" clip-rule="evenodd" d="M579.398 758.995C581.13 756.93 584.258 756.038 583.923 759.274C582.526 758.102 580.795 760.166 579.398 758.995Z" fill="#E5E5E5" fill-opacity="0.9"/>
<path fill-rule="evenodd" clip-rule="evenodd" d="M643.52 696.738C646.313 699.081 639.722 704.102 636.259 708.23C636.594 704.995 640.057 700.866 643.52 696.738Z" fill="#E5E5E5" fill-opacity="0.9"/>
<path fill-rule="evenodd" clip-rule="evenodd" d="M585.655 757.209C584.258 756.038 585.99 753.974 585.655 757.209C587.386 755.145 585.655 757.209 585.655 757.209Z" fill="#E5E5E5" fill-opacity="0.9"/>
<path fill-rule="evenodd" clip-rule="evenodd" d="M531.921 807.081C535.384 802.953 538.512 802.06 541.975 797.932C543.372 799.104 534.714 809.424 531.921 807.081Z" fill="#E5E5E5"/>
<path fill-rule="evenodd" clip-rule="evenodd" d="M675.469 681.342C676.865 682.513 673.737 683.406 676.531 685.749C674.799 687.813 671.671 688.705 670.275 687.534C670.609 684.298 674.072 680.17 675.469 681.342Z" fill="#E5E5E5" fill-opacity="0.9"/>
<path fill-rule="evenodd" clip-rule="evenodd" d="M658.547 712.861C656.815 714.925 657.15 711.689 658.547 712.861V712.861Z" fill="#E5E5E5" fill-opacity="0.9"/>
<path fill-rule="evenodd" clip-rule="evenodd" d="M432.558 931.203C434.289 929.143 434.289 929.143 432.558 931.203C435.686 930.313 435.686 930.313 435.686 930.313L433.955 932.373C432.558 931.203 432.558 931.203 432.558 931.203Z" fill="#231F20"/>
<path fill-rule="evenodd" clip-rule="evenodd" d="M635.368 746.164C633.971 744.993 635.703 742.929 635.368 746.164C637.099 744.1 637.099 744.1 635.368 746.164Z" fill="#E5E5E5" fill-opacity="0.9"/>
<path fill-rule="evenodd" clip-rule="evenodd" d="M639.558 749.679L641.289 747.615C642.686 748.787 641.289 747.615 639.558 749.679Z" fill="#E5E5E5" fill-opacity="0.9"/>
<path fill-rule="evenodd" clip-rule="evenodd" d="M601.465 795.089C603.197 793.025 603.197 793.025 601.465 795.089C604.593 794.196 604.593 794.196 604.593 794.196L602.862 796.26C601.465 795.089 601.465 795.089 601.465 795.089Z" fill="#E5E5E5" fill-opacity="0.9"/>
<path fill-rule="evenodd" clip-rule="evenodd" d="M550.192 850.54C548.46 852.604 546.729 854.668 543.601 855.561C542.204 854.389 549.13 846.133 550.192 850.54Z" fill="#231F20"/>
<path fill-rule="evenodd" clip-rule="evenodd" d="M612.246 793.583C613.308 797.99 609.844 802.118 604.65 808.31C600.46 804.796 607.387 796.539 612.246 793.583Z" fill="#E5E5E5" fill-opacity="0.9"/>
<path fill-rule="evenodd" clip-rule="evenodd" d="M574.489 835.757C574.154 838.992 570.691 843.12 567.563 844.013C569.294 841.949 571.026 839.885 574.489 835.757Z" fill="#E5E5E5"/>
<path fill-rule="evenodd" clip-rule="evenodd" d="M656.986 757.267C658.047 761.674 655.981 766.973 649.39 771.994C646.597 769.651 654.919 762.566 656.986 757.267Z" fill="#E5E5E5" fill-opacity="0.9"/>
<path fill-rule="evenodd" clip-rule="evenodd" d="M579.07 850.149C577.674 848.978 580.802 848.085 582.533 846.021C580.802 848.085 580.802 848.085 579.07 850.149Z" fill="#E5E5E5"/>
<path fill-rule="evenodd" clip-rule="evenodd" d="M575.607 854.277C575.607 854.277 575.942 851.042 575.607 854.277C577.339 852.213 577.339 852.213 575.607 854.277Z" fill="#E5E5E5"/>
<path fill-rule="evenodd" clip-rule="evenodd" d="M595.83 864.209C594.099 866.273 594.433 863.037 595.83 864.209V864.209Z" fill="#231F20"/>
<path fill-rule="evenodd" clip-rule="evenodd" d="M449.772 1058.17C450.107 1054.94 451.504 1056.11 449.772 1058.17C451.504 1056.11 449.772 1058.17 449.772 1058.17Z" fill="#231F20"/>
<path fill-rule="evenodd" clip-rule="evenodd" d="M500.042 1012.43L501.774 1010.36L503.17 1011.53L501.439 1013.6C501.439 1013.6 501.439 1013.6 500.042 1012.43Z" fill="#231F20"/>
<path fill-rule="evenodd" clip-rule="evenodd" d="M565.56 951.343C567.292 949.283 570.42 948.393 571.816 949.563C571.482 952.793 568.353 953.693 565.56 951.343Z" fill="#231F20"/>
<path fill-rule="evenodd" clip-rule="evenodd" d="M458.487 1061.97C458.487 1061.97 457.09 1060.79 458.487 1061.97C460.219 1059.9 458.487 1061.97 458.487 1061.97Z" fill="#231F20"/>
<path fill-rule="evenodd" clip-rule="evenodd" d="M487.565 77.1126C486.169 75.9406 485.499 82.4126 482.706 80.0686C481.309 78.8976 483.041 76.8336 483.041 76.8336C484.772 74.7696 486.169 75.9406 486.169 75.9406C485.107 71.5336 481.979 72.4266 480.582 71.2546L478.851 73.3186C477.119 75.3826 478.516 76.5546 475.053 80.6826C476.115 85.0896 479.578 80.9616 480.974 82.1336C482.371 83.3046 488.627 81.5196 487.565 77.1126Z" fill="#231F20"/>
<path fill-rule="evenodd" clip-rule="evenodd" d="M532.092 160.181C530.696 159.009 531.031 155.773 532.092 160.181C535.22 159.288 535.22 159.288 532.092 160.181Z" fill="#231F20"/>
<path fill-rule="evenodd" clip-rule="evenodd" d="M155.242 589.56C158.37 588.667 161.833 584.539 164.627 586.882C161.498 587.775 158.035 591.903 155.242 589.56Z" fill="#231F20"/>
<path fill-rule="evenodd" clip-rule="evenodd" d="M648.279 152.149C647.944 155.385 644.815 156.277 644.815 156.277C643.418 155.106 646.882 150.978 648.279 152.149C648.614 148.914 646.882 150.978 648.279 152.149Z" fill="#E5E5E5" fill-opacity="0.9"/>
<path fill-rule="evenodd" clip-rule="evenodd" d="M481.216 314.429C482.948 312.365 482.613 315.6 484.344 313.536C485.741 314.708 480.881 317.664 482.278 318.836C480.547 320.9 484.009 316.772 481.216 314.429Z" fill="#231F20"/>
<path fill-rule="evenodd" clip-rule="evenodd" d="M223.618 632.852C223.618 632.852 220.49 633.745 223.618 632.852C222.222 631.681 226.746 631.96 223.618 632.852Z" fill="#231F20"/>
<path fill-rule="evenodd" clip-rule="evenodd" d="M533.845 421.875C535.576 419.811 541.497 421.261 536.638 424.218C535.241 423.046 534.906 426.282 533.845 421.875Z" fill="#E5E5E5" fill-opacity="0.9"/>
<path fill-rule="evenodd" clip-rule="evenodd" d="M455.986 528.872C454.589 527.7 456.321 525.636 455.986 528.872C457.717 526.808 459.449 524.744 458.052 523.572C459.783 521.508 462.577 523.851 460.845 525.915C457.382 530.043 457.717 526.808 455.986 528.872Z" fill="#231F20"/>
<path fill-rule="evenodd" clip-rule="evenodd" d="M477.269 543.209C484.195 534.953 494.976 533.447 501.567 528.426C502.964 529.598 499.835 530.491 499.835 530.491C493.579 532.276 485.257 539.36 477.269 543.209Z" fill="#E5E5E5" fill-opacity="0.9"/>
<path fill-rule="evenodd" clip-rule="evenodd" d="M504.752 541.648C506.149 542.82 501.289 545.776 502.686 546.948C500.954 549.012 501.624 542.541 504.752 541.648Z" fill="#E5E5E5" fill-opacity="0.9"/>
<path fill-rule="evenodd" clip-rule="evenodd" d="M574.794 480.842C574.794 480.842 576.191 482.013 574.794 480.842C576.191 482.013 577.922 479.949 574.794 480.842ZM572.001 478.499C575.129 477.606 581.05 479.057 580.715 482.292C577.587 483.185 572.728 486.142 571.666 481.734C574.794 480.842 574.794 480.842 572.001 478.499Z" fill="#E5E5E5" fill-opacity="0.9"/>
<path fill-rule="evenodd" clip-rule="evenodd" d="M672.1 449.939C674.893 452.282 678.691 444.919 681.484 447.262C678.021 451.39 674.893 452.282 672.1 449.939Z" fill="#E5E5E5" fill-opacity="0.9"/>
<path fill-rule="evenodd" clip-rule="evenodd" d="M608.371 523.074C606.974 521.903 606.974 521.903 608.371 523.074C605.577 520.731 611.833 518.946 611.499 522.182C608.37 523.074 606.974 521.903 608.371 523.074C606.639 525.138 606.639 525.138 608.371 523.074Z" fill="#E5E5E5" fill-opacity="0.9"/>
<path fill-rule="evenodd" clip-rule="evenodd" d="M707.684 472.757C704.891 470.414 704.891 470.413 702.098 468.07C700.366 470.134 700.366 470.134 698.635 472.199C701.763 471.306 704.221 476.885 707.684 472.757ZM694.167 486.033C692.771 484.862 691.374 483.69 689.977 482.519C687.184 480.176 681.99 486.368 677.465 486.089C677.465 486.089 677.8 482.853 676.404 481.682C681.598 475.489 682.325 483.132 685.788 479.004C687.519 476.94 686.123 475.768 690.982 472.812C688.524 467.233 683.329 473.425 682.268 469.018C687.462 462.826 689.529 457.526 695.785 455.741C697.516 453.677 699.248 451.613 697.851 450.442C695.058 448.099 692.657 456.634 688.132 456.355C686.735 455.183 686.735 455.183 685.339 454.012C685.674 450.776 693.661 446.927 695.058 448.099C696.789 446.035 692.265 445.756 692.6 442.52C694.331 440.456 696.062 438.392 697.794 436.328C698.856 440.735 702.319 436.607 703.38 441.014C701.649 443.078 701.649 443.078 699.917 445.142C704.442 445.421 708.632 448.936 712.43 441.572C713.826 442.744 712.095 444.808 710.363 446.872C711.76 448.043 713.156 449.215 711.425 451.279C712.487 455.686 707.962 455.407 706.565 454.235C701.371 460.428 704.164 462.771 707.292 461.878C706.622 468.349 711.482 465.393 714.275 467.736C712.544 469.8 710.812 471.864 712.209 473.036C710.477 475.1 709.081 473.928 707.684 472.757C702.825 475.713 705.618 478.056 704.221 476.885C707.014 479.228 709.808 481.571 709.473 484.807C702.882 489.827 695.899 483.969 691.766 494.569C688.973 492.226 685.51 496.354 682.717 494.011C685.845 493.118 689.308 488.99 693.497 492.505C693.832 489.269 692.436 488.098 694.167 486.033Z" fill="#E5E5E5" fill-opacity="0.9"/>
<path fill-rule="evenodd" clip-rule="evenodd" d="M586.145 620.476C579.889 622.261 587.877 618.412 586.145 620.476C587.542 621.647 586.145 620.476 586.145 620.476Z" fill="#E5E5E5" fill-opacity="0.9"/>
<path fill-rule="evenodd" clip-rule="evenodd" d="M613.35 636.265C615.082 634.2 616.813 632.136 615.417 630.965C613.685 633.029 612.289 631.857 610.557 633.921C611.954 635.093 611.954 635.093 613.35 636.265ZM606.759 641.285C608.491 639.221 608.491 639.221 610.222 637.157L608.826 635.985C607.094 638.05 605.363 640.114 606.759 641.285ZM607.429 634.814C610.892 630.686 614.02 629.793 615.752 627.729C619.215 623.601 609.83 626.279 614.69 623.322C611.897 620.979 606.702 627.171 603.574 628.064C605.975 619.528 616.756 618.022 625.079 610.938C627.537 616.516 617.091 614.787 616.421 621.258C619.549 620.365 624.074 620.645 626.867 622.988C628.264 624.159 624.801 628.287 627.594 630.63C625.863 632.694 625.863 632.694 624.131 634.759C620.668 638.887 619.272 637.715 615.809 641.843C611.284 641.564 606.09 647.756 601.9 644.242C605.363 640.114 607.094 638.05 607.429 634.814Z" fill="#E5E5E5" fill-opacity="0.9"/>
<path fill-rule="evenodd" clip-rule="evenodd" d="M669.934 602.85C668.202 604.914 666.805 603.742 665.409 602.571C664.012 601.399 660.884 602.292 659.488 601.12C659.823 597.885 664.682 594.928 668.145 590.8C669.877 588.736 670.211 585.5 671.943 583.436C674.736 585.779 678.199 581.651 679.261 586.058C678.926 589.294 669.207 595.207 669.934 602.85C671.665 600.786 671.665 600.786 673.062 601.957C675.855 604.3 668.872 598.443 669.934 602.85Z" fill="#E5E5E5" fill-opacity="0.9"/>
<path fill-rule="evenodd" clip-rule="evenodd" d="M644.296 630.575C648.82 630.854 640.498 637.939 637.035 642.067C633.907 642.959 631.114 640.616 630.052 636.209C634.912 633.252 643.569 622.932 644.296 630.575C640.833 634.703 636.643 631.188 634.577 636.488C635.973 637.659 642.229 635.874 644.296 630.575Z" fill="#E5E5E5" fill-opacity="0.9"/>
<path fill-rule="evenodd" clip-rule="evenodd" d="M681.384 594.873C679.988 593.702 683.116 592.809 684.847 590.745C687.64 593.088 684.177 597.216 682.446 599.28C677.587 602.237 689.372 591.024 681.384 594.873Z" fill="#E5E5E5" fill-opacity="0.9"/>
<path fill-rule="evenodd" clip-rule="evenodd" d="M652.283 626.726L649.155 627.618C649.155 627.618 651.948 629.961 652.283 626.726ZM663.734 618.748C664.795 623.156 657.143 623.769 655.076 629.069C653.68 627.897 650.217 632.025 648.82 630.854C651.222 622.318 659.209 618.469 663.734 618.748Z" fill="#E5E5E5" fill-opacity="0.9"/>
<path fill-rule="evenodd" clip-rule="evenodd" d="M664.461 626.392C667.59 625.499 669.321 623.435 666.528 621.092C664.796 623.156 666.193 624.328 664.461 626.392ZM676.639 626.057C675.242 624.886 671.779 629.014 668.651 629.906C665.858 627.563 662.395 631.691 659.602 629.348C663.065 625.22 664.796 623.156 669.991 616.964C672.057 611.664 670.661 610.493 675.855 604.301C677.978 613.115 682.168 616.629 684.626 622.208C682.56 627.508 679.097 631.636 675.634 635.764C673.903 637.828 675.969 632.528 675.969 632.528C676.304 629.293 673.511 626.95 676.639 626.057Z" fill="#E5E5E5" fill-opacity="0.9"/>
<path fill-rule="evenodd" clip-rule="evenodd" d="M633.686 674.423C634.021 671.187 638.546 671.466 638.546 671.466C640.277 669.402 647.203 661.146 648.6 662.318C648.6 662.318 648.265 665.553 646.533 667.617C644.802 669.681 643.405 668.51 643.405 668.51C643.405 668.51 641.674 670.574 639.942 672.638C638.546 671.466 637.149 670.295 633.686 674.423Z" fill="#E5E5E5" fill-opacity="0.9"/>
</svg>